<?xml version="1.0" encoding="utf-8"?>
<!-- Generator: Adobe Illustrator 22.0.0, SVG Export Plug-In . SVG Version: 6.00 Build 0)  -->
<svg version="1.1" id="Capa_1" xmlns="http://www.w3.org/2000/svg" xmlns:xlink="http://www.w3.org/1999/xlink" x="0px" y="0px"
	 viewBox="0 0 1500 389.7" style="enable-background:new 0 0 1500 389.7;" xml:space="preserve">
<style type="text/css">
	.st0{fill:#595959;}
	.st1{fill:#4F4F4F;}
	.st2{fill:url(#SVGID_1_);}
	.st3{fill:url(#SVGID_2_);}
	.st4{fill:url(#SVGID_3_);}
	.st5{fill:url(#SVGID_4_);}
	.st6{fill:url(#SVGID_5_);}
	.st7{fill:url(#SVGID_6_);}
</style>
<g>
	<path class="st0" d="M521.3,216.8c-4.2,4.5-8.9,8.5-14.2,12.1c-5.3,3.6-11.2,6.5-17.8,8.7c-6.6,2.2-13.9,3.4-21.9,3.4
		c-11.9,0-22.5-1.9-31.9-5.6c-9.4-3.7-17.1-8.4-23.1-14c-7.5-7-13.3-15.2-17.4-24.5c-4.1-9.3-6.1-19.8-6.1-31.4
		c0-11.4,2-21.7,5.9-30.9c4-9.3,9.5-17.2,16.7-23.8c7.3-6.6,15.7-11.7,25.3-15.2c9.6-3.5,20.1-5.3,31.6-5.3c7,0,13.5,0.8,19.3,2.5
		c5.9,1.7,11.3,4,16.2,7.1c4.9,3.1,9.4,6.7,13.3,11c4,4.3,7.6,9,10.9,14.1l-11.5,6.9c-5.4-8.4-11.9-15.3-19.5-20.7
		c-7.7-5.4-17.2-8-28.7-8c-8,0-16,1.1-23.8,3.4c-7.9,2.3-14.9,6-21.2,11c-6.3,5-11.3,11.5-15.1,19.4c-3.8,7.9-5.7,17.5-5.7,28.7
		c0,10.6,1.8,19.8,5.5,27.6c3.6,7.8,8.5,14.3,14.5,19.4c6,5.2,12.9,9,20.8,11.6c7.9,2.6,15.9,3.8,24.2,3.8c6.6,0,12.7-1,18.3-3
		c5.6-2,10.6-4.6,15-7.8c4.5-3.2,8.4-6.7,11.9-10.4c3.4-3.8,6.4-7.5,9-11.2l10.9,7.7C529.2,207.9,525.5,212.4,521.3,216.8z"/>
	<path class="st0" d="M654.2,208.1c-2.2,8-5.7,14.4-10.4,19.2c-4.7,4.9-10.8,8.3-18.1,10.4c-7.3,2.1-16.1,3.2-26.1,3.2
		c-10,0-18.5-1.1-25.8-3.2c-7.2-2.1-13.2-5.6-17.8-10.4c-4.7-4.9-8.1-11.3-10.4-19.2c-2.3-8-3.4-17.8-3.4-29.6V92.9h13.6v85.2
		c0,9.3,0.7,17.2,2,23.6c1.3,6.4,3.7,11.5,7,15.4c3.3,3.9,7.8,6.7,13.4,8.4c5.6,1.7,12.8,2.6,21.5,2.6c8.9,0,16.2-0.9,21.9-2.6
		c5.7-1.7,10.2-4.5,13.5-8.4c3.3-3.9,5.6-9,6.9-15.4c1.3-6.4,1.9-14.2,1.9-23.6V92.9h13.8v85.6C657.6,190.3,656.5,200.1,654.2,208.1
		z"/>
	<path class="st0" d="M685.6,238.3V92.9h13.8v145.4H685.6z"/>
	<path class="st0" d="M856.7,195.6c-3.4,8.9-8.5,16.6-15.4,22.9c-6.9,6.3-15.5,11.2-25.8,14.7c-10.3,3.4-22.3,5.2-36.1,5.2h-47.9
		V92.9h47.9c13.8,0,25.8,1.7,36.1,5.2c10.3,3.4,18.9,8.3,25.8,14.7c6.9,6.3,12,14,15.4,23c3.4,9,5.1,19,5.1,30
		C861.8,176.7,860.1,186.6,856.7,195.6z M844.3,141.5c-2.6-7.3-6.6-13.7-12.2-19c-5.6-5.3-12.6-9.4-21.3-12.3
		c-8.6-2.9-19-4.3-31.1-4.3h-34.7v119.3h34.7c12.1,0,22.5-1.4,31.1-4.3c8.6-2.9,15.7-7,21.3-12.3c5.6-5.3,9.6-11.6,12.2-18.9
		c2.6-7.3,3.8-15.3,3.8-24.1S846.9,148.8,844.3,141.5z"/>
	<path class="st0" d="M987.4,238.3l-21.3-47.5h-65.5l-21.1,47.5H865l64.2-145.4h8.6l64.4,145.4H987.4z M946.4,145.2
		c-2.2-5-4.3-9.9-6.5-14.8c-2.2-4.9-4.3-10-6.5-15.2c-2.2,5-4.2,9.9-6.2,14.7c-2,4.9-4.1,9.7-6.2,14.6l-14.4,33.3h53.8L946.4,145.2z
		"/>
	<path class="st1" d="M1209.6,240.8c0-30,0-55.2,0-75.7c0-20.4,0.1-36.8,0.2-49c-7.9,12.1-18.7,28.5-32.5,49.1
		c-13.7,20.6-30.5,45.8-50.3,75.6h-7.7c-19.9-30-36.7-55.3-50.3-75.8c-13.6-20.6-24.4-36.8-32.3-48.8c0.1,12.3,0.2,28.6,0.2,49
		c0,20.4,0,45.7,0,75.7h-10.3V98.8h10.7c21.1,31.7,38.8,58.2,53.1,79.7c14.3,21.5,25.3,38,32.9,49.6c7.7-11.6,18.6-28.2,32.9-49.6
		c14.3-21.5,32-48,53.1-79.7h10.5v141.9H1209.6z"/>
	<path class="st1" d="M1251.7,240.8V98.8h95.2v9.8h-84.9v53.2h69v9.8h-69V231h87.5v9.8H1251.7z"/>
	<path class="st1" d="M1420.7,108.6v132.2h-10.3V108.6h-55.9v-9.8h122.2v9.8H1420.7z"/>
</g>
<g>
	<g>
		<path class="st1" d="M433.8,322.9c-1.4,1.5-2.9,2.8-4.6,4c-1.7,1.2-3.7,2.1-5.8,2.9c-2.2,0.7-4.6,1.1-7.2,1.1
			c-3.9,0-7.4-0.6-10.5-1.8c-3.1-1.2-5.6-2.7-7.6-4.6c-2.5-2.3-4.4-5-5.7-8c-1.3-3.1-2-6.5-2-10.3c0-3.7,0.6-7.1,1.9-10.1
			c1.3-3,3.1-5.6,5.5-7.8c2.4-2.2,5.1-3.8,8.3-5c3.1-1.2,6.6-1.7,10.4-1.7c2.3,0,4.4,0.3,6.3,0.8c1.9,0.5,3.7,1.3,5.3,2.3
			c1.6,1,3.1,2.2,4.4,3.6c1.3,1.4,2.5,2.9,3.6,4.6l-3.8,2.3c-1.8-2.8-3.9-5-6.4-6.8s-5.7-2.6-9.4-2.6c-2.6,0-5.2,0.4-7.8,1.1
			c-2.6,0.8-4.9,2-6.9,3.6c-2.1,1.7-3.7,3.8-5,6.4c-1.3,2.6-1.9,5.7-1.9,9.4c0,3.5,0.6,6.5,1.8,9c1.2,2.6,2.8,4.7,4.7,6.4
			c2,1.7,4.2,3,6.8,3.8c2.6,0.8,5.2,1.3,7.9,1.3c2.2,0,4.2-0.3,6-1c1.8-0.6,3.5-1.5,4.9-2.5c1.5-1,2.8-2.2,3.9-3.4
			c1.1-1.2,2.1-2.5,3-3.7l3.6,2.5C436.4,319.9,435.2,321.4,433.8,322.9z"/>
		<path class="st1" d="M469.6,329.9c0-0.1,0-0.4,0-0.9c0-0.5,0-1.2,0.1-2c0-0.8,0.1-1.5,0.1-2.1c-1.3,0.8-2.4,1.6-3.6,2.2
			c-1.1,0.6-2.3,1.2-3.5,1.6c-3.1,1.3-6.2,1.9-9.2,1.9c-4.4,0-7.8-1.2-10.1-3.6c-1-1.1-1.8-2.3-2.3-3.7c-0.5-1.4-0.8-3-0.8-4.9
			v-25.1h4.3v25.1c0,1.3,0.1,2.4,0.4,3.3s0.8,1.8,1.5,2.5c0.5,0.5,1.4,1.1,2.4,1.6c1.1,0.5,2.6,0.8,4.6,0.8c1.1,0,2.4-0.1,3.7-0.4
			c1.3-0.3,2.7-0.7,4.1-1.3c1.1-0.5,2.4-1.1,3.8-1.9c1.5-0.8,2.9-1.7,4.4-2.8v-26.8h4.4v36.6H469.6z"/>
		<path class="st1" d="M483.4,289.3v-8.2h4.3v8.1L483.4,289.3z M483.4,329.9v-36.6h4.3v36.6H483.4z"/>
		<path class="st1" d="M529.7,329.9c0-1.6,0.1-2.8,0.1-3.8c-0.7,0.6-1.5,1.2-2.4,1.7c-1.3,0.8-2.8,1.4-4.6,2
			c-1.8,0.6-3.9,0.8-6.2,0.8c-3.3,0-6.1-0.5-8.6-1.6c-2.5-1.1-4.5-2.5-6.2-4.3c-1.6-1.8-2.9-3.8-3.7-6.1c-0.8-2.3-1.3-4.6-1.3-7.1
			c0-2.7,0.5-5.2,1.4-7.5c0.9-2.3,2.2-4.3,3.9-6.1c1.7-1.7,3.8-3.1,6.2-4c2.4-1,5.1-1.4,8.1-1.4c2.4,0,4.7,0.3,7,1
			c2.3,0.7,4.4,1.8,6.3,3.2v-15.8h4.4v48.8H529.7z M529.7,302.3c-2.1-2.1-4.3-3.5-6.4-4.3c-2.2-0.8-4.4-1.2-6.9-1.2
			c-2.5,0-4.6,0.4-6.5,1.2c-1.9,0.8-3.5,1.8-4.8,3.2c-1.3,1.4-2.3,2.9-3,4.7c-0.7,1.8-1,3.7-1,5.8c0,2,0.3,3.9,1,5.7
			c0.7,1.8,1.7,3.4,3,4.7c1.3,1.4,2.9,2.4,4.8,3.3c1.9,0.8,4.1,1.2,6.6,1.2c1.9,0,3.5-0.2,5-0.7c1.4-0.4,2.7-1,3.8-1.6
			c0.5-0.3,1-0.6,1.5-0.9c0.5-0.3,0.9-0.7,1.3-1c0.3-0.3,0.6-0.5,0.8-0.7c0.3-0.2,0.5-0.4,0.7-0.7L529.7,302.3z"/>
		<path class="st1" d="M573.7,329.9c-0.6-0.7-1.1-1.3-1.4-1.9c-0.3-0.5-0.6-1.1-0.8-1.6c-1,0.8-2.2,1.5-3.4,2.1
			c-1.2,0.5-2.4,1-3.5,1.3c-1.2,0.3-2.3,0.5-3.3,0.7c-1,0.1-2,0.2-2.8,0.2c-3,0-5.5-0.3-7.5-0.9c-2-0.6-3.7-1.4-4.9-2.4
			c-1.3-1-2.2-2.2-2.7-3.5c-0.5-1.3-0.8-2.6-0.8-4c0-2.6,0.7-4.8,2-6.5c1.3-1.7,3.2-3.1,5.7-4.2c2.5-1.1,5.5-1.9,9-2.5
			c3.5-0.6,7.5-1.1,11.9-1.5V305c0-1.4-0.2-2.6-0.5-3.6c-0.3-1-0.9-1.9-1.7-2.6c-0.8-0.7-2-1.2-3.4-1.6c-1.4-0.4-3.2-0.5-5.4-0.5
			c-1.7,0-3.2,0.1-4.6,0.4c-1.3,0.3-2.3,0.5-2.9,0.7c-0.6,0.2-0.9,0.3-1,0.4l-0.4-4.5c0.1,0,0.5-0.1,1.3-0.3
			c0.8-0.2,1.8-0.3,3.3-0.5c1.4-0.2,2.9-0.3,4.5-0.3c5.3,0,9.1,1,11.6,3.1c2.4,2.1,3.6,5.1,3.6,9v17.6c0,0.8,0,1.3,0.1,1.8
			c0,0.4,0.1,0.8,0.3,1.2c0.1,0.4,0.3,0.7,0.6,1c0.3,0.3,0.6,0.8,1.1,1.3l1.9,2.3H573.7z M571,309.4c-4.3,0.4-8,0.8-11.1,1.4
			c-3.1,0.5-5.6,1.2-7.5,2c-1.9,0.8-3.4,1.8-4.3,2.9c-0.9,1.1-1.4,2.5-1.4,4.1c0,0.6,0.1,1.3,0.4,2.1c0.3,0.8,0.8,1.5,1.7,2.2
			c0.8,0.7,2,1.3,3.5,1.7c1.5,0.5,3.6,0.7,6.1,0.7c0.7,0,1.5-0.1,2.5-0.2c1-0.1,2.1-0.4,3.3-0.8c1.2-0.4,2.3-0.9,3.4-1.6
			c1.1-0.7,2.2-1.5,3.1-2.6L571,309.4z"/>
		<path class="st1" d="M636.7,329.9v-26.4c0-1-0.1-1.9-0.3-2.7c-0.2-0.8-0.6-1.6-1.2-2.2c-0.5-0.5-1.1-0.9-2-1.3
			c-0.9-0.4-2-0.6-3.5-0.6c-1.8,0-3.8,0.5-6,1.4c-1.1,0.5-2.3,1.1-3.6,1.8c-1.3,0.8-2.6,1.7-3.9,2.8v27.1h-4.3v-27.2
			c0-1-0.1-1.9-0.4-2.6c-0.3-0.7-0.7-1.3-1.3-1.8c-0.6-0.5-1.3-0.9-2.1-1.2c-0.8-0.3-1.8-0.4-3-0.4c-0.8,0-1.8,0.1-2.9,0.3
			c-1.1,0.2-2.2,0.6-3.5,1.2c-1.2,0.5-2.4,1.1-3.6,1.9c-1.2,0.8-2.5,1.7-3.7,2.8v27H587v-36.6h4.4l-0.1,4.5c1.2-0.8,2.3-1.6,3.4-2.2
			c1.1-0.6,2.1-1.1,3.1-1.5c1.3-0.5,2.6-0.9,3.8-1.2c1.2-0.2,2.3-0.3,3.4-0.3c1.6,0,3,0.2,4.3,0.7c1.3,0.4,2.4,1,3.4,1.8
			c0.6,0.5,1.1,1,1.5,1.5c0.4,0.6,0.8,1.1,1.1,1.7c2.5-1.9,4.8-3.3,7-4.1c2.6-1,5.1-1.6,7.5-1.6c1.9,0,3.6,0.3,5,0.8
			c1.4,0.6,2.6,1.4,3.6,2.4c0.9,1,1.6,2.1,2,3.4c0.4,1.3,0.6,2.6,0.6,4.1v26.7H636.7z"/>
		<path class="st1" d="M689,318.7c-0.8,2.3-2.1,4.3-3.7,6.1c-1.7,1.8-3.8,3.2-6.3,4.3c-2.6,1.1-5.6,1.6-9.1,1.6
			c-3.4,0-6.4-0.5-8.9-1.5c-2.6-1-4.7-2.4-6.4-4.2c-1.7-1.8-3-3.8-3.8-6.1c-0.9-2.3-1.3-4.7-1.3-7.2c0-3,0.5-5.7,1.6-8.1
			c1.1-2.4,2.5-4.4,4.4-6c1.9-1.6,4-2.8,6.5-3.7c2.5-0.9,5.1-1.3,7.9-1.3c2.8,0,5.4,0.4,7.9,1.3c2.5,0.9,4.6,2.1,6.5,3.7
			c1.8,1.6,3.3,3.6,4.4,6c1.1,2.4,1.6,5.1,1.6,8.1C690.2,314.1,689.8,316.4,689,318.7z M685.9,311.7c0-2.3-0.4-4.4-1.2-6.2
			c-0.8-1.8-1.9-3.4-3.4-4.7c-1.4-1.3-3.1-2.3-5.1-3c-1.9-0.7-4.1-1-6.4-1c-2.3,0-4.4,0.3-6.4,1c-2,0.7-3.7,1.7-5.1,3
			c-1.4,1.3-2.5,2.9-3.4,4.7c-0.8,1.8-1.2,3.9-1.2,6.2c0,1.9,0.3,3.8,1,5.6c0.6,1.8,1.6,3.4,3,4.8c1.3,1.4,3,2.5,5,3.3
			c2,0.8,4.4,1.2,7.2,1.2c2.7,0,5-0.4,7-1.2c2-0.8,3.7-1.9,5-3.3c1.3-1.4,2.3-3,2.9-4.7C685.5,315.5,685.8,313.7,685.9,311.7
			L685.9,311.7z"/>
		<path class="st1" d="M730.7,323.8c-0.8,1.2-1.9,2.4-3.4,3.5c-1.5,1.1-3.4,1.9-5.6,2.5c-2.2,0.6-4.7,0.9-7.5,0.9
			c-2.2,0-4.2-0.2-6-0.5c-1.8-0.3-3.6-0.7-5.1-1.2c-1.6-0.5-3-1.1-4.2-1.9c-1.2-0.8-2.6-1.9-4.1-3.3l3.2-3.1
			c1.6,1.8,3.7,3.2,6.4,4.2c2.7,1.1,5.9,1.6,9.7,1.6c2,0,4-0.2,5.9-0.6c1.9-0.4,3.6-1.1,5-1.9c1.8-1.3,2.8-2.8,2.8-4.6
			c0-0.6-0.1-1.3-0.4-2c-0.3-0.7-0.7-1.3-1.3-1.8c-0.4-0.4-0.9-0.7-1.4-1c-0.5-0.3-1.3-0.6-2.2-0.8c-0.9-0.3-2.1-0.5-3.5-0.8
			c-1.4-0.3-3.1-0.5-5.2-0.9c-2-0.3-3.7-0.6-5.2-0.8c-1.4-0.3-2.6-0.5-3.7-0.8c-1-0.3-1.9-0.5-2.6-0.9c-0.7-0.3-1.4-0.8-2.1-1.3
			c-2.3-1.7-3.5-3.8-3.5-6.4c0-1.7,0.5-3.2,1.4-4.4c0.9-1.2,2.2-2.2,3.7-2.9c3-1.4,7.1-2.1,12.1-2.1c1.8,0,3.7,0.1,5.4,0.3
			c1.8,0.2,3.5,0.7,5.2,1.5c1.1,0.5,2.1,1.1,3.1,1.8c1,0.8,2.1,1.9,3.3,3.4l-3.4,3c-1.2-1.8-2.9-3.2-5.1-4.2c-2.2-1-5-1.5-8.6-1.5
			c-2,0-3.9,0.1-5.7,0.4c-1.8,0.3-3.3,0.7-4.6,1.3c-1.7,0.9-2.6,2-2.6,3.5c0,0.5,0.1,1,0.3,1.4c0.2,0.5,0.6,0.9,1.2,1.4
			c0.4,0.3,0.9,0.6,1.4,0.8c0.5,0.2,1.2,0.5,2,0.7c0.9,0.2,2,0.5,3.4,0.7c1.4,0.3,3.2,0.5,5.4,0.9c2,0.3,3.7,0.6,5.2,0.9
			c1.4,0.3,2.7,0.6,3.8,0.9c1.1,0.3,2.1,0.7,2.9,1.1c0.8,0.4,1.5,0.9,2.2,1.4c1,0.8,1.9,1.9,2.4,3.1c0.6,1.2,0.8,2.5,0.8,3.8
			C731.8,321,731.4,322.5,730.7,323.8z"/>
		<path class="st1" d="M786.5,329.9c0-1.6,0.1-2.8,0.1-3.8c-0.7,0.6-1.5,1.2-2.4,1.7c-1.3,0.8-2.8,1.4-4.6,2
			c-1.8,0.6-3.9,0.8-6.2,0.8c-3.3,0-6.1-0.5-8.6-1.6c-2.5-1.1-4.5-2.5-6.2-4.3c-1.6-1.8-2.9-3.8-3.7-6.1c-0.8-2.3-1.3-4.6-1.3-7.1
			c0-2.7,0.5-5.2,1.4-7.5c0.9-2.3,2.2-4.3,3.9-6.1c1.7-1.7,3.8-3.1,6.2-4c2.4-1,5.1-1.4,8.1-1.4c2.4,0,4.7,0.3,7,1
			c2.3,0.7,4.4,1.8,6.3,3.2v-15.8h4.4v48.8H786.5z M786.5,302.3c-2.1-2.1-4.3-3.5-6.4-4.3c-2.2-0.8-4.4-1.2-6.9-1.2
			c-2.5,0-4.6,0.4-6.5,1.2c-1.9,0.8-3.5,1.8-4.8,3.2c-1.3,1.4-2.3,2.9-3,4.7c-0.7,1.8-1,3.7-1,5.8c0,2,0.3,3.9,1,5.7
			c0.7,1.8,1.7,3.4,3,4.7c1.3,1.4,2.9,2.4,4.8,3.3c1.9,0.8,4.1,1.2,6.6,1.2c1.9,0,3.5-0.2,5-0.7c1.4-0.4,2.7-1,3.8-1.6
			c0.5-0.3,1-0.6,1.5-0.9c0.5-0.3,0.9-0.7,1.3-1c0.3-0.3,0.6-0.5,0.8-0.7c0.3-0.2,0.5-0.4,0.7-0.7L786.5,302.3z"/>
		<path class="st1" d="M804,312.9c0.2,2.5,0.7,4.6,1.7,6.4c1,1.7,2.2,3.1,3.6,4.2c1.4,1.1,3,1.8,4.7,2.3c1.7,0.5,3.4,0.7,5,0.7
			c1.8,0,3.6-0.2,5.5-0.5c1.9-0.3,3.7-0.7,5.4-1.1c1.7-0.4,3.2-0.8,4.5-1.2c1.3-0.4,2.1-0.7,2.6-0.8l0.3,4.1
			c-2.5,0.8-4.7,1.4-6.5,1.8c-1.8,0.4-3.8,0.8-5.9,1.2c-2.1,0.4-4,0.6-5.7,0.6c-2.6,0-5.1-0.4-7.5-1.2c-2.5-0.8-4.7-2.1-6.6-4
			c-1.7-1.6-3-3.6-4-6c-1-2.3-1.5-5.1-1.5-8.3c0-2.9,0.5-5.5,1.5-7.8c1-2.3,2.5-4.3,4.4-5.9c1.8-1.5,3.8-2.7,6-3.6
			c2.2-0.9,4.8-1.3,7.7-1.3c2.6,0,5,0.5,7.3,1.5c2.3,1,4.3,2.4,6.1,4.3c1.5,1.6,2.7,3.6,3.6,5.9c0.9,2.3,1.4,5.2,1.4,8.7H804z
			 M833,309c-0.3-1.6-0.8-3.1-1.5-4.6c-0.8-1.5-1.7-2.8-2.9-3.9c-1.2-1.1-2.6-2-4.1-2.7c-1.6-0.7-3.3-1-5.2-1c-2.1,0-4.1,0.3-5.9,1
			c-1.8,0.6-3.3,1.5-4.6,2.7c-1.3,1.1-2.4,2.4-3.2,3.9c-0.8,1.5-1.3,3-1.4,4.6L833,309L833,309z"/>
		<path class="st1" d="M863.6,329.9v-48.8h4.3v48.8H863.6z"/>
		<path class="st1" d="M916.3,318.7c-0.8,2.3-2.1,4.3-3.7,6.1c-1.7,1.8-3.8,3.2-6.3,4.3c-2.6,1.1-5.6,1.6-9.1,1.6
			c-3.4,0-6.4-0.5-8.9-1.5c-2.6-1-4.7-2.4-6.4-4.2c-1.7-1.8-3-3.8-3.8-6.1c-0.9-2.3-1.3-4.7-1.3-7.2c0-3,0.5-5.7,1.6-8.1
			c1.1-2.4,2.5-4.4,4.4-6c1.9-1.6,4-2.8,6.5-3.7c2.5-0.9,5.1-1.3,7.9-1.3c2.8,0,5.4,0.4,7.9,1.3c2.5,0.9,4.6,2.1,6.5,3.7
			c1.8,1.6,3.3,3.6,4.4,6c1.1,2.4,1.6,5.1,1.6,8.1C917.5,314.1,917.1,316.4,916.3,318.7z M913.2,311.7c0-2.3-0.4-4.4-1.2-6.2
			c-0.8-1.8-1.9-3.4-3.4-4.7c-1.4-1.3-3.1-2.3-5.1-3c-1.9-0.7-4.1-1-6.4-1c-2.3,0-4.4,0.3-6.4,1c-2,0.7-3.7,1.7-5.1,3
			c-1.4,1.3-2.5,2.9-3.4,4.7c-0.8,1.8-1.2,3.9-1.2,6.2c0,1.9,0.3,3.8,1,5.6c0.6,1.8,1.6,3.4,3,4.8c1.3,1.4,3,2.5,5,3.3
			c2,0.8,4.4,1.2,7.2,1.2c2.7,0,5-0.4,7-1.2c2-0.8,3.7-1.9,5-3.3c1.3-1.4,2.3-3,2.9-4.7C912.8,315.5,913.1,313.7,913.2,311.7
			L913.2,311.7z"/>
		<path class="st1" d="M972.8,345.5v-19.2c-0.8,0.5-1.6,1-2.4,1.5c-0.8,0.5-1.5,0.9-2.2,1.2c-1.8,0.8-3.5,1.2-5,1.4
			c-1.5,0.2-2.8,0.3-3.8,0.3c-3.2,0-6-0.5-8.5-1.6c-2.5-1.1-4.5-2.5-6-4.1c-1.8-2-3.2-4.2-3.9-6.5c-0.8-2.3-1.2-4.6-1.2-6.9
			c0-2.7,0.4-5.1,1.3-7.3c0.9-2.2,2.1-4.1,3.6-5.7c3.7-3.9,8.6-5.9,14.6-5.9c1.8,0,3.5,0.2,5,0.5c1.5,0.3,2.9,0.8,4.2,1.4
			c0.8,0.3,1.6,0.7,2.3,1.1c0.7,0.4,1.3,0.8,1.9,1.3l-0.1-3.5h4.4v52.1H972.8z M972.8,302.3c-0.9-0.9-1.8-1.7-2.9-2.4
			c-1-0.7-2-1.3-3-1.7c-1.3-0.6-2.5-1-3.7-1.2c-1.2-0.2-2.5-0.3-3.7-0.3c-2.6,0-4.8,0.4-6.7,1.3c-1.9,0.8-3.5,1.9-4.8,3.3
			c-1.3,1.3-2.2,2.9-2.9,4.6c-0.7,1.8-1,3.6-1,5.5c0,2.3,0.4,4.3,1.1,6.1c0.7,1.7,1.7,3.2,2.8,4.4c1.5,1.6,3.2,2.8,5.2,3.5
			c1.9,0.7,4,1.1,6.2,1.1c1.5,0,2.9-0.1,4.1-0.4c1.2-0.3,2.3-0.6,3.1-1c0.8-0.4,1.8-0.9,2.8-1.5c1-0.6,2.1-1.5,3.4-2.7V302.3z"/>
		<path class="st1" d="M1018.1,329.9c0-0.1,0-0.4,0-0.9c0-0.5,0-1.2,0.1-2c0-0.8,0.1-1.5,0.1-2.1c-1.3,0.8-2.4,1.6-3.6,2.2
			c-1.1,0.6-2.3,1.2-3.5,1.6c-3.1,1.3-6.2,1.9-9.2,1.9c-4.4,0-7.8-1.2-10.1-3.6c-1-1.1-1.8-2.3-2.3-3.7c-0.5-1.4-0.8-3-0.8-4.9
			v-25.1h4.3v25.1c0,1.3,0.1,2.4,0.4,3.3c0.3,0.9,0.8,1.8,1.5,2.5c0.5,0.5,1.4,1.1,2.4,1.6c1.1,0.5,2.6,0.8,4.6,0.8
			c1.1,0,2.4-0.1,3.7-0.4c1.3-0.3,2.7-0.7,4.1-1.3c1.1-0.5,2.4-1.1,3.8-1.9c1.5-0.8,2.9-1.7,4.4-2.8v-26.8h4.4v36.6H1018.1z"/>
		<path class="st1" d="M1035.6,312.9c0.2,2.5,0.7,4.6,1.7,6.4c1,1.7,2.2,3.1,3.6,4.2c1.4,1.1,3,1.8,4.7,2.3c1.7,0.5,3.4,0.7,5,0.7
			c1.8,0,3.6-0.2,5.5-0.5c1.9-0.3,3.7-0.7,5.4-1.1c1.7-0.4,3.2-0.8,4.5-1.2c1.3-0.4,2.1-0.7,2.6-0.8l0.3,4.1
			c-2.5,0.8-4.7,1.4-6.5,1.8c-1.8,0.4-3.8,0.8-5.9,1.2c-2.1,0.4-4,0.6-5.7,0.6c-2.6,0-5.1-0.4-7.5-1.2c-2.5-0.8-4.7-2.1-6.6-4
			c-1.7-1.6-3-3.6-4-6c-1-2.3-1.5-5.1-1.5-8.3c0-2.9,0.5-5.5,1.5-7.8c1-2.3,2.5-4.3,4.4-5.9c1.8-1.5,3.8-2.7,6-3.6
			c2.2-0.9,4.8-1.3,7.7-1.3c2.6,0,5,0.5,7.3,1.5c2.3,1,4.3,2.4,6.1,4.3c1.5,1.6,2.7,3.6,3.6,5.9c0.9,2.3,1.4,5.2,1.4,8.7H1035.6z
			 M1064.6,309c-0.3-1.6-0.8-3.1-1.5-4.6c-0.8-1.5-1.7-2.8-2.9-3.9c-1.2-1.1-2.6-2-4.1-2.7c-1.6-0.7-3.3-1-5.2-1
			c-2.1,0-4.1,0.3-5.9,1c-1.8,0.6-3.3,1.5-4.6,2.7c-1.3,1.1-2.4,2.4-3.2,3.9c-0.8,1.5-1.3,3-1.4,4.6L1064.6,309L1064.6,309z"/>
		<path class="st1" d="M1124.3,329.2c-2.5,0.9-5.3,1.4-8.4,1.4c-1.6,0-3.4-0.1-5.3-0.4c-1.9-0.3-3.8-0.9-5.5-1.9
			c-1.7-1-3.2-2.3-4.3-4.1c-1.2-1.8-1.8-4.2-1.8-7.2v-19.6h-10.4v-4h10.4v-10.2h4.3v10.2h23.3v4h-23.3V317c0,2,0.4,3.6,1.1,4.8
			c0.7,1.2,1.7,2.2,2.9,2.9c1.2,0.7,2.6,1.2,4.1,1.4c1.5,0.3,3.1,0.4,4.7,0.4c2.5,0,4.8-0.4,6.9-1.4c2.2-0.9,4.2-1.8,6.1-2.8
			l1.9,3.8C1129,327.3,1126.8,328.3,1124.3,329.2z"/>
		<path class="st1" d="M1134.9,312.9c0.2,2.5,0.7,4.6,1.7,6.4c1,1.7,2.2,3.1,3.6,4.2c1.4,1.1,3,1.8,4.7,2.3c1.7,0.5,3.4,0.7,5,0.7
			c1.8,0,3.6-0.2,5.5-0.5c1.9-0.3,3.7-0.7,5.4-1.1c1.7-0.4,3.2-0.8,4.5-1.2c1.3-0.4,2.1-0.7,2.6-0.8l0.3,4.1
			c-2.5,0.8-4.7,1.4-6.5,1.8c-1.8,0.4-3.8,0.8-5.9,1.2c-2.1,0.4-4,0.6-5.7,0.6c-2.6,0-5.1-0.4-7.5-1.2c-2.5-0.8-4.7-2.1-6.6-4
			c-1.7-1.6-3-3.6-4-6c-1-2.3-1.5-5.1-1.5-8.3c0-2.9,0.5-5.5,1.5-7.8c1-2.3,2.5-4.3,4.4-5.9c1.8-1.5,3.8-2.7,6-3.6
			c2.2-0.9,4.8-1.3,7.7-1.3c2.6,0,5,0.5,7.3,1.5c2.3,1,4.3,2.4,6.1,4.3c1.5,1.6,2.7,3.6,3.6,5.9c0.9,2.3,1.4,5.2,1.4,8.7H1134.9z
			 M1163.8,309c-0.3-1.6-0.8-3.1-1.5-4.6c-0.8-1.5-1.7-2.8-2.9-3.9c-1.2-1.1-2.6-2-4.1-2.7c-1.6-0.7-3.3-1-5.2-1
			c-2.1,0-4.1,0.3-5.9,1c-1.8,0.6-3.3,1.5-4.6,2.7c-1.3,1.1-2.4,2.4-3.2,3.9c-0.8,1.5-1.3,3-1.4,4.6L1163.8,309L1163.8,309z"/>
		<path class="st1" d="M1194.2,289.3v-8.2h4.3v8.1L1194.2,289.3z M1194.2,329.9v-36.6h4.3v36.6H1194.2z"/>
		<path class="st1" d="M1257.6,329.9v-26.4c0-1-0.1-1.9-0.3-2.7c-0.2-0.8-0.6-1.6-1.2-2.2c-0.5-0.5-1.1-0.9-2-1.3
			c-0.9-0.4-2-0.6-3.5-0.6c-1.8,0-3.8,0.5-6,1.4c-1.1,0.5-2.3,1.1-3.6,1.8c-1.3,0.8-2.6,1.7-3.9,2.8v27.1h-4.3v-27.2
			c0-1-0.1-1.9-0.4-2.6c-0.3-0.7-0.7-1.3-1.3-1.8c-0.6-0.5-1.3-0.9-2.1-1.2c-0.8-0.3-1.8-0.4-3-0.4c-0.8,0-1.8,0.1-2.9,0.3
			c-1.1,0.2-2.2,0.6-3.5,1.2c-1.2,0.5-2.4,1.1-3.6,1.9c-1.2,0.8-2.5,1.7-3.7,2.8v27h-4.4v-36.6h4.4l-0.1,4.5
			c1.2-0.8,2.3-1.6,3.4-2.2c1.1-0.6,2.1-1.1,3.1-1.5c1.3-0.5,2.6-0.9,3.8-1.2c1.2-0.2,2.3-0.3,3.4-0.3c1.6,0,3,0.2,4.3,0.7
			c1.3,0.4,2.4,1,3.4,1.8c0.6,0.5,1.1,1,1.5,1.5c0.4,0.6,0.8,1.1,1.1,1.7c2.5-1.9,4.8-3.3,7-4.1c2.6-1,5.1-1.6,7.5-1.6
			c1.9,0,3.6,0.3,5,0.8c1.4,0.6,2.6,1.4,3.6,2.4c0.9,1,1.6,2.1,2,3.4c0.4,1.3,0.6,2.6,0.6,4.1v26.7H1257.6z"/>
		<path class="st1" d="M1309.7,318.4c-0.8,2.3-2.1,4.5-3.9,6.5c-1.5,1.7-3.6,3.1-6,4.1c-2.5,1.1-5.3,1.6-8.5,1.6
			c-1,0-2.3-0.1-3.8-0.3c-1.5-0.2-3.2-0.7-5-1.4c-0.7-0.3-1.5-0.7-2.2-1.2c-0.8-0.5-1.5-1-2.3-1.5v19.2h-4.4v-52.1h4.4l-0.1,3.5
			c0.6-0.5,1.2-0.9,1.9-1.3c0.7-0.4,1.5-0.8,2.3-1.1c1.3-0.6,2.7-1,4.2-1.4c1.5-0.3,3.2-0.5,5-0.5c6.1,0,10.9,2,14.6,5.9
			c1.5,1.6,2.7,3.5,3.6,5.7c0.9,2.2,1.4,4.6,1.4,7.3C1310.8,313.8,1310.4,316.1,1309.7,318.4z M1306.5,311.5c0-1.9-0.3-3.8-1-5.5
			c-0.7-1.8-1.6-3.3-2.9-4.6c-1.3-1.4-2.8-2.5-4.7-3.3c-1.9-0.8-4.1-1.3-6.7-1.3c-1.3,0-2.5,0.1-3.7,0.3c-1.2,0.2-2.5,0.6-3.7,1.2
			c-1,0.5-2,1-3,1.7c-1,0.7-2,1.5-2.9,2.4v18.7c1.2,1.1,2.3,2,3.4,2.7c1,0.6,2,1.2,2.8,1.5c0.9,0.4,1.9,0.7,3.1,1
			c1.2,0.3,2.6,0.4,4.1,0.4c2.2,0,4.2-0.4,6.2-1.1c2-0.7,3.7-1.9,5.1-3.5c1.1-1.2,2.1-2.7,2.8-4.4
			C1306.1,315.8,1306.4,313.8,1306.5,311.5L1306.5,311.5z"/>
		<path class="st1" d="M1356,318.7c-0.8,2.3-2.1,4.3-3.7,6.1c-1.7,1.8-3.8,3.2-6.3,4.3c-2.6,1.1-5.6,1.6-9.1,1.6
			c-3.4,0-6.4-0.5-8.9-1.5c-2.6-1-4.7-2.4-6.4-4.2c-1.7-1.8-3-3.8-3.8-6.1c-0.9-2.3-1.3-4.7-1.3-7.2c0-3,0.5-5.7,1.6-8.1
			c1.1-2.4,2.5-4.4,4.4-6c1.9-1.6,4-2.8,6.5-3.7c2.5-0.9,5.1-1.3,7.9-1.3c2.8,0,5.4,0.4,7.9,1.3c2.5,0.9,4.6,2.1,6.5,3.7
			c1.8,1.6,3.3,3.6,4.4,6c1.1,2.4,1.6,5.1,1.6,8.1C1357.2,314.1,1356.8,316.4,1356,318.7z M1352.9,311.7c0-2.3-0.4-4.4-1.2-6.2
			c-0.8-1.8-1.9-3.4-3.4-4.7c-1.4-1.3-3.1-2.3-5.1-3c-1.9-0.7-4.1-1-6.4-1c-2.3,0-4.4,0.3-6.4,1c-2,0.7-3.7,1.7-5.1,3
			c-1.4,1.3-2.5,2.9-3.4,4.7c-0.8,1.8-1.2,3.9-1.2,6.2c0,1.9,0.3,3.8,1,5.6c0.6,1.8,1.6,3.4,3,4.8c1.3,1.4,3,2.5,5,3.3
			c2,0.8,4.4,1.2,7.2,1.2c2.7,0,5-0.4,7-1.2c2-0.8,3.7-1.9,5-3.3c1.3-1.4,2.3-3,2.9-4.7C1352.5,315.5,1352.8,313.7,1352.9,311.7
			L1352.9,311.7z"/>
		<path class="st1" d="M1391.7,300.6c-1-1-1.7-1.8-2.2-2.2c-0.5-0.4-1-0.7-1.4-0.9c-0.5-0.3-1.2-0.4-1.9-0.6
			c-0.7-0.1-1.5-0.2-2.4-0.2c-1,0-2,0.1-3.1,0.3c-1.1,0.2-2.4,0.6-3.7,1.2c-2.3,1.1-4.4,2.5-6.5,4.2v27.4h-4.4v-36.6h4.4l-0.1,4.1
			c0.8-0.6,1.6-1.1,2.4-1.6c0.8-0.5,1.6-0.9,2.5-1.3c1.3-0.6,2.7-1.1,4.1-1.5c1.4-0.4,2.9-0.6,4.5-0.6c1,0,2,0.1,3,0.3
			c1,0.2,2,0.5,3,0.9c0.8,0.3,1.5,0.7,2.1,1.2c0.6,0.5,1.5,1.2,2.6,2.2L1391.7,300.6z"/>
		<path class="st1" d="M1431.7,329.2c-2.5,0.9-5.3,1.4-8.4,1.4c-1.6,0-3.4-0.1-5.3-0.4c-1.9-0.3-3.8-0.9-5.5-1.9
			c-1.7-1-3.2-2.3-4.3-4.1c-1.2-1.8-1.8-4.2-1.8-7.2v-19.6h-10.4v-4h10.4v-10.2h4.3v10.2h23.3v4h-23.3V317c0,2,0.4,3.6,1.1,4.8
			c0.7,1.2,1.7,2.2,2.9,2.9c1.2,0.7,2.6,1.2,4.1,1.4c1.5,0.3,3.1,0.4,4.7,0.4c2.5,0,4.8-0.4,6.9-1.4c2.2-0.9,4.2-1.8,6.1-2.8
			l1.9,3.8C1436.5,327.3,1434.2,328.3,1431.7,329.2z"/>
		<path class="st1" d="M1471.5,329.9c-0.6-0.7-1.1-1.3-1.4-1.9c-0.3-0.5-0.6-1.1-0.8-1.6c-1,0.8-2.2,1.5-3.4,2.1
			c-1.2,0.5-2.4,1-3.5,1.3c-1.2,0.3-2.3,0.5-3.3,0.7c-1,0.1-2,0.2-2.8,0.2c-3,0-5.5-0.3-7.5-0.9c-2-0.6-3.7-1.4-4.9-2.4
			c-1.3-1-2.2-2.2-2.7-3.5c-0.5-1.3-0.8-2.6-0.8-4c0-2.6,0.7-4.8,2-6.5c1.3-1.7,3.2-3.1,5.7-4.2c2.5-1.1,5.5-1.9,9-2.5
			c3.5-0.6,7.5-1.1,11.9-1.5V305c0-1.4-0.2-2.6-0.5-3.6c-0.3-1-0.9-1.9-1.7-2.6c-0.8-0.7-2-1.2-3.4-1.6c-1.4-0.4-3.2-0.5-5.4-0.5
			c-1.7,0-3.2,0.1-4.6,0.4c-1.3,0.3-2.3,0.5-2.9,0.7c-0.6,0.2-0.9,0.3-1,0.4l-0.4-4.5c0.1,0,0.5-0.1,1.3-0.3
			c0.8-0.2,1.8-0.3,3.3-0.5c1.4-0.2,2.9-0.3,4.5-0.3c5.3,0,9.1,1,11.6,3.1c2.4,2.1,3.6,5.1,3.6,9v17.6c0,0.8,0,1.3,0.1,1.8
			c0,0.4,0.1,0.8,0.3,1.2c0.1,0.4,0.3,0.7,0.6,1c0.3,0.3,0.6,0.8,1.1,1.3l1.9,2.3H1471.5z M1468.8,309.4c-4.3,0.4-8,0.8-11.1,1.4
			c-3.1,0.5-5.6,1.2-7.5,2c-1.9,0.8-3.4,1.8-4.3,2.9c-0.9,1.1-1.3,2.5-1.3,4.1c0,0.6,0.1,1.3,0.4,2.1c0.3,0.8,0.8,1.5,1.7,2.2
			c0.8,0.7,2,1.3,3.5,1.7c1.5,0.5,3.6,0.7,6.1,0.7c0.7,0,1.5-0.1,2.5-0.2c1-0.1,2.1-0.4,3.3-0.8c1.2-0.4,2.3-0.9,3.4-1.6
			c1.1-0.7,2.2-1.5,3.1-2.6L1468.8,309.4z"/>
	</g>
</g>
<g>
	<linearGradient id="SVGID_1_" gradientUnits="userSpaceOnUse" x1="19.6033" y1="86.8155" x2="295.232" y2="186.7688">
		<stop  offset="0" style="stop-color:#00B6BE"/>
		<stop  offset="1" style="stop-color:#00EA6C"/>
	</linearGradient>
	<path class="st2" d="M300.6,247.6c-7.4-4.6-10.5-11.4-11.4-19.4c-1-8.8,0.7-17.4,1.8-26c1.9-16.4,2.6-32.8-1.3-49
		c-1.1-4.6-2.5-9-4.3-13.3c-0.7-1.6-1.4-3.3-1.9-5c-0.9-3.6,1-7.1,4.3-8.3c3.1-1.1,5.7,0.2,7.5,3.9c6.6,13.6,8.8,28,9.6,42.9
		c0.8,13-1.8,25.7-3.3,38.4c-0.5,4.5-1,9-0.4,13.6c0.5,4.3,1.8,8,5.3,11c2.9,2.5,3.2,6.8,1,9.6C305.6,248.5,303.1,248.6,300.6,247.6
		z"/>
	<linearGradient id="SVGID_2_" gradientUnits="userSpaceOnUse" x1="-17.635" y1="189.5028" x2="257.9937" y2="289.4561">
		<stop  offset="0" style="stop-color:#00B6BE"/>
		<stop  offset="1" style="stop-color:#00EA6C"/>
	</linearGradient>
	<path class="st3" d="M297.6,253.5c-8.1-3.3-15.3-2-22.5,2c-7.7,4.3-13.7,10.7-20.2,16.5c-12.2,11.1-25.2,21.1-40.7,27.4
		c-4.3,1.8-8.8,3.2-13.4,4.2c-1.7,0.4-3.5,0.7-5.1,1.4c-3.5,1.3-5.2,4.9-4.3,8.3c0.9,3.2,3.4,4.5,7.5,3.8c14.9-2.5,27.9-9.1,40.6-17
		c11.1-6.9,19.9-16.3,29.4-25c3.4-3.1,6.8-6,10.9-8.2c3.8-2,7.6-3.1,12-2.1c3.8,0.9,7.4-1.3,8.4-4.8
		C301.2,257,299.8,254.9,297.6,253.5z"/>
	<linearGradient id="SVGID_3_" gradientUnits="userSpaceOnUse" x1="-18.2177" y1="191.1097" x2="257.411" y2="291.063">
		<stop  offset="0" style="stop-color:#00B6BE"/>
		<stop  offset="1" style="stop-color:#00EA6C"/>
	</linearGradient>
	<path class="st4" d="M258.9,255.5c-3.7-6.3-12-8.1-20.2-4.5c-8.8,3.7-16.5,9.3-24.8,13.9c-16.8,9.2-34.4,15.8-53.9,13
		c-26.1-3.7-49-13.8-65.9-35.1c-7.8-9.8-12.1-21.2-14.9-33.3c-0.2-0.6-0.3-1.3-0.5-1.9c-0.5-1.9-2.6-3-4.5-2.4
		c-1.8,0.6-3.8,1.3-5.7,1.9c-1.7,0.6-2.7,2.3-2.3,4c0,0.1,0.1,0.3,0.1,0.4c6.6,32.3,25.6,54.7,54.9,68.6
		c17.2,8.2,35.5,12.8,54.8,10.8c17.2-1.7,33.1-8,47.8-16.9c6.3-3.8,12.5-7.6,19.1-10.8c2.4-1.1,4.3-1.4,6.5,0.7
		c2.5,2.5,5.5,2.3,8.3,0.1C260.3,262.1,260.7,258.5,258.9,255.5z"/>
	<linearGradient id="SVGID_4_" gradientUnits="userSpaceOnUse" x1="25.7016" y1="69.9989" x2="301.3303" y2="169.9522">
		<stop  offset="0" style="stop-color:#00B6BE"/>
		<stop  offset="1" style="stop-color:#00EA6C"/>
	</linearGradient>
	<path class="st5" d="M278.7,214.4c-7.2,0.6-13.5-5.1-15.4-13.9c-2-9.3-2-18.8-3.1-28.2c-2.2-19-7.1-37.2-20.7-51.5
		c-18.1-19.1-39.7-31.9-66.8-33.3c-12.5-0.6-24.3,2.4-35.7,7.2c-0.6,0.3-1.2,0.5-1.8,0.7c-1.9,0.7-3.9-0.3-4.5-2.3
		c-0.6-1.9-1.2-3.8-1.8-5.8c-0.5-1.7,0.3-3.5,1.9-4.2c0.1-0.1,0.3-0.1,0.4-0.2c30.2-13.3,59.5-10.8,87.7,4.9
		c16.6,9.3,31,21.5,40.6,38.3c8.6,15,12.7,31.6,13.9,48.8c0.5,7.3,1,14.6,2.3,21.9c0.5,2.6,1.4,4.4,4.3,4.9c3.5,0.7,5.1,3.2,4.9,6.6
		C284.8,211.7,282.2,214.1,278.7,214.4z"/>
	<linearGradient id="SVGID_5_" gradientUnits="userSpaceOnUse" x1="4.8971" y1="127.3687" x2="280.5259" y2="227.322">
		<stop  offset="0" style="stop-color:#00B6BE"/>
		<stop  offset="1" style="stop-color:#00EA6C"/>
	</linearGradient>
	<path class="st6" d="M304.6,277.1c-4.4-6.8-13.7-7.8-20.7-2.3c-2.3,1.8-4.3,3.9-6.2,6.1c-11.1,12.4-23.3,23.5-37.5,32.3
		c-9,5.5-18.6,9.7-29,11.7c-1.9,0.4-3.8,0.7-5.1,2.3c-1.7,2.2-2.8,4.6-1.4,7.3c1.5,3.1,4.2,3.9,7.3,3.5c8.4-1.3,16.4-4.2,24-7.9
		c17.3-8.4,31.9-20.3,45.1-34.2c2.7-2.8,5.3-5.8,8-8.6c1.1-1.1,2.5-3.5,4.2-1.9c1.4,1.4-0.3,3.3-1.4,4.6c-4.1,5-8,10.1-12.4,14.8
		c-18.5,20.2-40.2,35.8-66.7,43.9c-26.9,8.2-53.6,7.1-79.9-2.8c-5.3-2-10.4-4.6-15.5-7.2c-18.6-9.4-34.8-21.8-47.9-38.2
		c-16.2-20.3-24.6-43.6-26.3-69.4c-0.6-8.8-0.4-17.6,0.5-26.3c24-6.8,81.3-28,90.9-31.2c6.3-2.1,7.5-4.4,5.5-10.7
		c-2.7-8.7-23.4-71-30-90.7c7.6-7.2,15.9-13.6,24.9-19.1C157.2,39.8,181,33,207,34.5c20.9,1.2,40.4,7.2,58.9,16.9
		c5,2.7,10.1,5.3,14.8,8.5c23.4,15.7,39.7,36.8,48.6,63.5c8.7,26.2,8.6,52.9,2.9,79.7c-1.3,6.3-3.2,12.5-4.9,18.7
		c-0.5,1.7-1,4.2-2.9,3.8c-2.4-0.4-1.2-2.9-0.9-4.5c0.7-3.9,1.6-7.7,2.3-11.5c3.6-18.8,4.9-37.6,1.7-56.5
		c-1.4-8.4-3.7-16.5-7.5-24.1c-1.4-2.8-3.7-4.5-7.1-4c-3.1,0.5-4.4,2.7-5.2,5.4c-0.6,2,0.3,3.7,1.1,5.5c4.4,9.7,6.5,19.9,7.2,30.4
		c1.1,16.7-0.9,33-4.6,49.3c-0.6,2.8-1.2,5.7-1.4,8.6c-0.4,8.9,5.8,15.8,13.9,15.5c5.8-0.2,10-3.3,12.8-8.2
		c4.5-7.8,6.1-16.6,7.9-25.2c7.1-33.3,5.9-66.1-7.6-97.8c-8.1-19-20-35.4-35.7-48.9c-17.7-15.2-38.1-25.6-60.5-32.1
		c-25.8-7.5-51.8-8.2-77.8-0.7c-17,4.9-32.4,13-46.5,23.4c-7.6,5.6-14.9,11.7-21.3,18.6c-2.1,2.3-2.8,5.5-1.9,8.5
		c5.3,16.2,22.9,69.9,25.4,77.5c1,3,0.4,5.3-3.1,6.5c-11,3.6-62,20.5-77.9,25.7c-3,1-5.2,3.6-5.7,6.7c-1.4,8.1-2,16.3-2.1,24.5
		c-0.3,17.5,2,34.8,7.8,51.4c9,25.5,24.6,46.3,45.7,63c18.2,14.5,38.5,25.1,61.2,30.6c20.1,5,40.3,5.2,60.5,0.7
		c33.7-7.4,61-25.5,84.1-50.5c6-6.5,12.2-12.9,16-21.1C307.7,287.2,307.7,282,304.6,277.1z"/>
	<linearGradient id="SVGID_6_" gradientUnits="userSpaceOnUse" x1="9.2424" y1="115.3864" x2="284.8712" y2="215.3397">
		<stop  offset="0" style="stop-color:#00B6BE"/>
		<stop  offset="1" style="stop-color:#00EA6C"/>
	</linearGradient>
	<path class="st7" d="M85.9,142.3c3-5.8,6.4-11.1,10.3-16c0.6-0.7,0.8-1.7,0.5-2.6l-3.6-11.2c-0.4-1.1-1.8-1.4-2.6-0.6
		c-6.5,7.1-12.2,15.2-16.8,24.1c-5.2,10.2-8.8,20.7-10.7,31.4c-0.2,1.1,0.9,2.1,2,1.7l11-3.6c0.9-0.3,1.6-1.1,1.9-2
		C79.7,156.3,82.3,149.2,85.9,142.3z"/>
</g>
</svg>
