<svg xmlns="http://www.w3.org/2000/svg" shape-rendering="geometricPrecision" text-rendering="geometricPrecision" image-rendering="optimizeQuality" fill-rule="evenodd" clip-rule="evenodd" viewBox="0 0 512 438.89"><path d="M188.72 396.22h33.42c4.88 8.84 10.69 17.1 17.28 24.68h-75.38V239.95L12.1 61.85C5.95 53.8 2.27 45.92.78 38.73c-1.59-7.83-.71-15 2.33-21.1 3.17-6.3 8.42-11.18 15.44-14.22C24.35.97 31.35-.27 39.3.05L478.56.02c7.14.09 13.09 1.36 17.9 3.61 6.99 3.27 11.61 8.46 13.91 14.9 2.09 5.82 2.12 12.38.34 19.1-1.9 7.13-6.04 14.86-12.02 22.31l-111.43 132.2c-8.85-2.67-18.08-4.49-27.57-5.38L479.54 44.55c3.76-4.73 6.32-9.33 7.37-13.29.53-1.99.65-3.55.33-4.46-.09-.27-.5-.6-1.18-.92-1.67-.77-4.17-1.23-7.5-1.24H38.72c-4.38-.22-7.91.28-10.44 1.37-1.6.73-2.7 1.63-3.19 2.6-.59 1.16-.69 2.92-.25 5.12.77 3.65 2.94 8.06 6.71 13.04l154.17 180.69 3 8v160.76zM99.44 46.99l69.16 81.05-18.67 16.01L80.77 63l18.67-16.01zm84.81 99.39 24.45 28.66-18.68 16.01-24.45-28.66 18.68-16.01zm162.09 70.57c30.62 0 58.39 12.45 78.45 32.52 20.07 20.06 32.52 47.83 32.52 78.45 0 30.62-12.45 58.39-32.52 78.46-20.06 20.06-47.83 32.51-78.45 32.51-30.62 0-58.39-12.45-78.46-32.51-20.06-20.07-32.51-47.84-32.51-78.46 0-30.62 12.45-58.39 32.51-78.45 20.07-20.07 47.84-32.52 78.46-32.52zm31.28 64.57 15.13 15.13c2.94 2.94 2.94 7.93.02 10.85l-20.42 20.41 20.42 20.4c2.92 2.94 2.94 7.92-.02 10.88l-15.13 15.13c-2.95 2.95-7.88 3-10.88.01l-20.4-20.4-20.4 20.4c-2.94 2.94-7.88 2.99-10.87 0l-15.13-15.12c-3-2.99-3-7.89-.01-10.89l20.4-20.4-20.39-20.39c-3-3.01-2.98-7.89.02-10.88l15.11-15.13c3-3 7.94-2.95 10.88-.01l20.41 20.4 20.4-20.42c2.98-2.97 7.95-2.88 10.86.03z"/></svg>