<?xml version="1.0" encoding="utf-8"?>
<!-- Generator: Adobe Illustrator 22.0.0, SVG Export Plug-In . SVG Version: 6.00 Build 0)  -->
<svg version="1.1" id="Capa_1" xmlns="http://www.w3.org/2000/svg" xmlns:xlink="http://www.w3.org/1999/xlink" x="0px" y="0px"
	 viewBox="0 0 1500 1500" style="enable-background:new 0 0 1500 1500;" xml:space="preserve">
<style type="text/css">
	.st0{fill:url(#SVGID_1_);}
	.st1{fill:url(#SVGID_2_);}
	.st2{fill:url(#SVGID_3_);}
	.st3{fill:url(#SVGID_4_);}
	.st4{fill:url(#SVGID_5_);}
	.st5{fill:url(#SVGID_6_);}
</style>
<g>
	<linearGradient id="SVGID_1_" gradientUnits="userSpaceOnUse" x1="41.2866" y1="301.6797" x2="1191.4203" y2="718.7611">
		<stop  offset="0" style="stop-color:#00B6BE"/>
		<stop  offset="1" style="stop-color:#00EA6C"/>
	</linearGradient>
	<path class="st0" d="M1214,972.8c-30.8-19.3-43.8-47.4-47.6-81.1c-4.1-36.7,3-72.6,7.3-108.6c8.1-68.4,10.6-136.7-5.3-204.5
		c-4.5-19-10.3-37.6-18-55.6c-2.9-6.8-6-13.6-7.8-20.7c-3.8-15,4-29.6,17.9-34.5c13-4.7,23.7,0.8,31.2,16.2
		c27.6,56.6,36.6,117,40.2,179.2c3.2,54.4-7.4,107.1-13.7,160.4c-2.2,18.9-4,37.7-1.6,56.8c2.2,17.8,7.7,33.4,22,45.7
		c12.2,10.5,13.4,28.5,4.1,40.1C1234.6,976.3,1224.1,976.9,1214,972.8z"/>
	<linearGradient id="SVGID_2_" gradientUnits="userSpaceOnUse" x1="-114.0999" y1="730.1696" x2="1036.0338" y2="1147.2511">
		<stop  offset="0" style="stop-color:#00B6BE"/>
		<stop  offset="1" style="stop-color:#00EA6C"/>
	</linearGradient>
	<path class="st1" d="M1201.3,997.2c-33.6-13.9-64-8.2-93.7,8.2c-32.3,17.9-57.4,44.5-84.3,68.9c-51.1,46.3-105.2,87.9-169.7,114.2
		c-18.1,7.4-36.6,13.4-55.7,17.6c-7.2,1.6-14.5,3-21.4,5.7c-14.5,5.6-21.7,20.4-17.8,34.6c3.7,13.4,14.4,18.9,31.3,16
		c62.1-10.3,116.5-38,169.3-71.1c46.2-29,83-68.1,122.8-104.2c14.1-12.7,28.4-25.1,45.3-34.2c15.8-8.5,31.7-13.1,50-8.6
		c15.7,3.8,31-5.6,35.1-19.9C1216.2,1012,1210.6,1003.1,1201.3,997.2z"/>
	<linearGradient id="SVGID_3_" gradientUnits="userSpaceOnUse" x1="-116.5315" y1="736.8751" x2="1033.6022" y2="1153.9565">
		<stop  offset="0" style="stop-color:#00B6BE"/>
		<stop  offset="1" style="stop-color:#00EA6C"/>
	</linearGradient>
	<path class="st2" d="M1040,1005.5c-15.4-26.1-49.9-33.7-84.5-19c-36.6,15.6-68.8,38.8-103.5,57.9c-70.1,38.5-143.5,65.7-225.1,54.3
		c-109-15.3-204.5-57.7-274.8-146.4c-32.4-40.9-50.4-88.4-62.1-138.8c-0.6-2.7-1.3-5.4-2-8.1c-2.1-8.1-10.7-12.6-18.6-9.9
		c-7.7,2.6-15.8,5.4-23.9,8c-7,2.3-11.1,9.6-9.6,16.8c0.1,0.6,0.3,1.2,0.4,1.8c27.7,134.8,107,228.3,229,286.3
		c71.8,34.1,148.3,53.3,228.5,45.2c71.9-7.2,138-33.3,199.7-70.6c26.2-15.8,52.2-31.8,79.9-45c10-4.8,18.1-5.9,27.1,2.7
		c10.6,10.3,23.1,9.4,34.5,0.6C1045.7,1033,1047.4,1018.1,1040,1005.5z"/>
	<linearGradient id="SVGID_4_" gradientUnits="userSpaceOnUse" x1="66.7334" y1="231.5081" x2="1216.8672" y2="648.5896">
		<stop  offset="0" style="stop-color:#00B6BE"/>
		<stop  offset="1" style="stop-color:#00EA6C"/>
	</linearGradient>
	<path class="st3" d="M1122.3,833.9c-30.2,2.6-56.4-21.2-64.4-57.9c-8.5-38.8-8.3-78.6-12.8-117.8c-9.2-79.4-29.6-155.1-86.3-214.9
		c-75.7-79.9-165.6-133.2-278.6-139c-52.2-2.7-101.2,10.2-149.1,29.9c-2.6,1.1-5.1,2.1-7.7,3.1c-7.8,3-16.5-1.4-18.9-9.4
		c-2.3-7.7-4.8-16-7.3-24.2c-2.2-7.1,1.3-14.6,8.1-17.5c0.6-0.2,1.1-0.5,1.7-0.7C632.8,229.9,755,240.3,873,306.1
		c69.4,38.7,129.4,89.9,169.3,160c35.8,62.8,52.9,131.7,58.2,203.6c2.3,30.5,4.4,61,9.6,91.2c1.9,10.9,5.7,18.2,17.9,20.5
		c14.5,2.7,21.1,13.4,20.5,27.7C1148,822.7,1136.9,832.7,1122.3,833.9z"/>
	<linearGradient id="SVGID_5_" gradientUnits="userSpaceOnUse" x1="-20.0786" y1="470.8987" x2="1130.0552" y2="887.9802">
		<stop  offset="0" style="stop-color:#00B6BE"/>
		<stop  offset="1" style="stop-color:#00EA6C"/>
	</linearGradient>
	<path class="st4" d="M1230.3,1095.9c-18.5-28.2-57.2-32.7-86.3-9.7c-9.5,7.4-17.9,16.4-25.9,25.4c-46.2,51.8-97.1,98.3-156.4,134.8
		c-37.5,23.1-77.5,40.6-121,49c-7.7,1.5-15.9,2.9-21.2,9.6c-7.2,9.1-11.6,19-5.8,30.7c6.4,12.8,17.5,16.4,30.5,14.4
		c35.2-5.3,68.4-17.3,100.3-32.8c72.1-35,133.1-84.9,188.1-142.6c11.3-11.8,22-24.2,33.5-35.8c4.8-4.8,10.4-14.7,17.6-7.8
		c6,5.8-1.3,13.6-5.9,19.2c-17.1,20.8-33.5,42.1-51.7,61.9c-77.3,84.3-167.9,149.3-278.1,183c-112.1,34.3-223.6,29.8-333.5-11.6
		c-22.3-8.4-43.3-19.3-64.6-29.9c-77.7-39.3-145.4-91.1-200-159.4c-67.7-84.7-102.6-182-109.8-289.6c-2.5-36.8-1.6-73.5,2.3-109.9
		c100.3-28.3,339.1-116.7,379.3-130.1c26.4-8.8,31.2-18.5,23-44.7c-11.4-36.2-97.8-296.2-125.2-378.3c31.8-30,66.3-56.7,103.8-79.8
		c91.8-56.5,191.3-84.6,299.6-78.5c87.3,4.9,168.8,30,245.8,70.5c21,11.2,42,22,61.8,35.3c97.5,65.5,165.8,153.7,202.8,265
		c36.4,109.4,36,220.9,12.1,332.7c-5.6,26.3-13.5,52-20.5,78c-1.9,7-4.1,17.5-12.3,16c-9.8-1.9-5-12.2-3.8-18.9
		c2.8-16.1,6.6-32,9.7-48.1c15.2-78.2,20.4-156.8,7.2-235.9c-5.9-34.9-15.3-69-31.4-100.7c-6-11.7-15.3-18.7-29.4-16.5
		c-12.9,2-18.4,11.3-21.6,22.5c-2.4,8.2,1.2,15.6,4.5,22.8c18.4,40.4,27.3,83.1,30.2,127c4.6,69.5-3.8,137.9-19.2,205.6
		c-2.7,11.8-5.1,23.8-5.7,35.8c-1.8,37,24.2,66,58,64.7c24.2-0.9,41.6-13.7,53.4-34.3c18.6-32.7,25.3-69.2,33-105.2
		c29.5-139,24.8-275.7-31.5-408.1c-33.8-79.4-83.4-147.7-148.8-203.9c-73.9-63.6-158.9-107-252.3-134c-107.8-31.2-216-34-324.6-2.9
		c-70.9,20.3-135,54.2-193.9,97.8c-31.7,23.5-62.2,48.7-88.9,77.8c-8.8,9.5-11.8,23-7.8,35.3c22.1,67.5,95.5,291.7,105.8,323.5
		c4.1,12.7,1.6,22.2-13.1,27c-45.9,14.9-258.9,85.5-324.9,107.4c-12.5,4.1-21.5,14.9-23.8,27.8c-5.9,33.7-8.2,67.9-8.9,102.2
		c-1.3,73.2,8.2,145.1,32.7,214.7c37.6,106.5,102.6,193.1,190.5,262.8c76.1,60.4,160.8,104.5,255.4,127.9
		c83.7,20.7,168.2,21.6,252.5,3.1c140.5-30.9,254.6-106.3,350.8-210.9c24.9-27.1,50.8-53.8,66.6-87.9
		C1243.3,1137.7,1243.6,1116.1,1230.3,1095.9z"/>
	<linearGradient id="SVGID_6_" gradientUnits="userSpaceOnUse" x1="-1.9469" y1="420.8993" x2="1148.1869" y2="837.9808">
		<stop  offset="0" style="stop-color:#00B6BE"/>
		<stop  offset="1" style="stop-color:#00EA6C"/>
	</linearGradient>
	<path class="st5" d="M317.7,533.4c12.4-24.1,26.9-46.3,43.1-66.7c2.5-3.1,3.3-7.2,2.1-11L348,408.9c-1.5-4.6-7.4-5.9-10.7-2.3
		c-27.1,29.6-50.8,63.3-70.1,100.7c-21.9,42.4-36.5,86.5-44.5,131c-0.8,4.7,3.6,8.6,8.2,7.1l45.7-15.1c3.9-1.3,6.8-4.5,7.8-8.5
		C291.9,591.8,302.9,562.1,317.7,533.4z"/>
</g>
</svg>
