<?xml version="1.0" encoding="utf-8"?>
<!-- Generator: Adobe Illustrator 22.0.0, SVG Export Plug-In . SVG Version: 6.00 Build 0)  -->
<svg version="1.1" id="Capa_1" xmlns="http://www.w3.org/2000/svg" xmlns:xlink="http://www.w3.org/1999/xlink" x="0px" y="0px"
	 viewBox="0 0 1500 1196.8" style="enable-background:new 0 0 1500 1196.8;" xml:space="preserve">
<style type="text/css">
	.st0{fill:#595959;}
	.st1{fill:#4F4F4F;}
	.st2{fill:url(#SVGID_1_);}
	.st3{fill:url(#SVGID_2_);}
	.st4{fill:url(#SVGID_3_);}
	.st5{fill:url(#SVGID_4_);}
	.st6{fill:url(#SVGID_5_);}
	.st7{fill:url(#SVGID_6_);}
</style>
<g>
	<path class="st0" d="M201.6,1019.3c-5.5,6-11.8,11.3-18.9,16.1c-7.1,4.8-15,8.6-23.7,11.6c-8.8,3-18.5,4.5-29.2,4.5
		c-15.8,0-30-2.5-42.5-7.4c-12.5-4.9-22.8-11.1-30.8-18.6c-10-9.4-17.8-20.3-23.2-32.7c-5.4-12.4-8.2-26.4-8.2-41.9
		c0-15.1,2.6-28.9,7.9-41.2c5.3-12.3,12.7-22.9,22.2-31.8c9.7-8.8,20.9-15.6,33.7-20.3c12.8-4.7,26.8-7,42.1-7
		c9.4,0,18,1.1,25.8,3.3c7.8,2.2,15,5.4,21.6,9.4c6.5,4.1,12.5,9,17.7,14.7c5.3,5.7,10.1,12,14.6,18.8l-15.3,9.2
		c-7.1-11.2-15.8-20.4-26-27.6c-10.2-7.1-23-10.7-38.3-10.7c-10.7,0-21.3,1.5-31.8,4.6c-10.5,3.1-19.9,8-28.2,14.7
		c-8.3,6.7-15.1,15.4-20.2,25.9c-5.1,10.6-7.7,23.3-7.7,38.3c0,14.1,2.4,26.4,7.3,36.8c4.9,10.4,11.3,19,19.3,25.9
		c8,6.9,17.2,12,27.7,15.4c10.5,3.4,21.2,5.1,32.3,5.1c8.8,0,17-1.3,24.4-4c7.4-2.6,14.1-6.1,20-10.3c6-4.3,11.2-8.9,15.8-13.9
		c4.6-5,8.6-10,12-14.9l14.6,10.2C212.1,1007.4,207.1,1013.3,201.6,1019.3z"/>
	<path class="st0" d="M378.8,1007.6c-3,10.6-7.6,19.2-13.9,25.7c-6.3,6.5-14.3,11.1-24.1,13.9c-9.8,2.8-21.4,4.2-34.9,4.2
		c-13.3,0-24.7-1.4-34.3-4.2c-9.6-2.8-17.5-7.4-23.7-13.9c-6.2-6.5-10.9-15-13.9-25.7c-3.1-10.6-4.6-23.8-4.6-39.4V854.1h18.1v113.6
		c0,12.4,0.9,22.9,2.7,31.4c1.8,8.5,4.9,15.4,9.3,20.6c4.4,5.2,10.4,8.9,17.9,11.2c7.5,2.3,17,3.4,28.6,3.4
		c11.9,0,21.7-1.1,29.2-3.4c7.6-2.3,13.6-6,18-11.2c4.4-5.2,7.5-12,9.2-20.6c1.7-8.5,2.6-19,2.6-31.4V854.1h18.4v114.1
		C383.2,983.9,381.7,997,378.8,1007.6z"/>
	<path class="st0" d="M420.5,1047.9V854.1h18.4v193.8H420.5z"/>
	<path class="st0" d="M648.6,990.9c-4.5,11.9-11.4,22.1-20.6,30.5c-9.2,8.4-20.6,14.9-34.3,19.5c-13.7,4.6-29.7,6.9-48.1,6.9h-63.8
		V854.1h63.8c18.4,0,34.4,2.3,48.1,6.9c13.7,4.6,25.2,11.1,34.3,19.5c9.2,8.4,16,18.6,20.6,30.6c4.5,12,6.8,25.3,6.8,40
		C655.4,965.7,653.1,979,648.6,990.9z M632.2,918.8c-3.4-9.8-8.8-18.2-16.2-25.3c-7.4-7.1-16.9-12.5-28.3-16.3
		c-11.5-3.8-25.3-5.7-41.5-5.7h-46.2v159.1h46.2c16.2,0,30-1.9,41.5-5.7c11.5-3.8,20.9-9.3,28.3-16.3c7.4-7.1,12.8-15.4,16.2-25.2
		c3.4-9.7,5.1-20.4,5.1-32.2S635.6,928.6,632.2,918.8z"/>
	<path class="st0" d="M822.9,1047.9l-28.3-63.3h-87.3l-28.1,63.3h-19.4l85.5-193.8h11.5l85.8,193.8H822.9z M768.3,923.8
		c-2.9-6.6-5.8-13.2-8.7-19.8c-2.9-6.5-5.8-13.3-8.7-20.3c-2.9,6.6-5.7,13.2-8.3,19.7c-2.6,6.5-5.4,12.9-8.3,19.4l-19.2,44.4h71.7
		L768.3,923.8z"/>
	<path class="st1" d="M1119.1,1051.2c0-40,0-73.6,0-100.9c0-27.2,0.1-49,0.3-65.4c-10.6,16.2-25,38-43.3,65.5
		c-18.3,27.5-40.6,61.1-67,100.7h-10.2c-26.6-40-48.9-73.7-67-101.1c-18.1-27.4-32.5-49.1-43-65.1c0.2,16.3,0.3,38.1,0.3,65.4
		c0,27.2,0,60.9,0,100.9h-13.8V862h14.3c28.1,42.2,51.7,77.6,70.7,106.2c19.1,28.6,33.7,50.6,43.9,66.1
		c10.2-15.5,24.8-37.5,43.9-66.1c19.1-28.6,42.6-64,70.7-106.2h14v189.2H1119.1z"/>
	<path class="st1" d="M1175.2,1051.2V862h126.9v13H1189v71h91.9v13H1189v79.1h116.7v13H1175.2z"/>
	<path class="st1" d="M1400.4,875v176.2h-13.8V875h-74.6v-13H1475v13H1400.4z"/>
</g>
<g>
	<g>
		<path class="st1" d="M83.6,1160.6c-1.8,2-3.9,3.7-6.2,5.3c-2.3,1.6-4.9,2.8-7.8,3.8c-2.9,1-6.1,1.5-9.6,1.5
			c-5.2,0-9.8-0.8-13.9-2.4c-4.1-1.6-7.5-3.7-10.1-6.1c-3.3-3.1-5.8-6.6-7.6-10.7c-1.8-4.1-2.7-8.7-2.7-13.7c0-5,0.9-9.5,2.6-13.5
			c1.7-4,4.2-7.5,7.3-10.4c3.2-2.9,6.9-5.1,11.1-6.7c4.2-1.5,8.8-2.3,13.8-2.3c3.1,0,5.9,0.4,8.5,1.1c2.6,0.7,4.9,1.8,7.1,3.1
			c2.1,1.3,4.1,2.9,5.8,4.8c1.7,1.9,3.3,3.9,4.8,6.2l-5,3c-2.3-3.7-5.2-6.7-8.5-9c-3.3-2.3-7.5-3.5-12.6-3.5c-3.5,0-7,0.5-10.4,1.5
			c-3.4,1-6.5,2.6-9.2,4.8c-2.7,2.2-4.9,5-6.6,8.5c-1.7,3.5-2.5,7.6-2.5,12.6c0,4.6,0.8,8.7,2.4,12.1c1.6,3.4,3.7,6.2,6.3,8.5
			c2.6,2.3,5.7,3.9,9.1,5.1c3.4,1.1,7,1.7,10.6,1.7c2.9,0,5.6-0.4,8-1.3c2.4-0.9,4.6-2,6.6-3.4c2-1.4,3.7-2.9,5.2-4.6
			c1.5-1.6,2.8-3.3,3.9-4.9l4.8,3.3C87,1156.7,85.4,1158.7,83.6,1160.6z"/>
		<path class="st1" d="M131.3,1170c0-0.1,0-0.5,0-1.2c0-0.7,0.1-1.5,0.1-2.6c0-1.1,0.1-2,0.1-2.8c-1.7,1.1-3.3,2.1-4.8,2.9
			c-1.5,0.8-3.1,1.6-4.7,2.2c-4.2,1.7-8.3,2.5-12.2,2.5c-5.9,0-10.4-1.6-13.5-4.8c-1.4-1.5-2.4-3.1-3.1-4.9c-0.7-1.8-1-4-1-6.6
			v-33.5h5.8v33.4c0,1.7,0.2,3.1,0.5,4.4c0.3,1.3,1,2.4,2,3.3c0.7,0.7,1.8,1.4,3.3,2.1c1.4,0.7,3.5,1,6.2,1c1.5,0,3.1-0.2,4.9-0.5
			c1.8-0.4,3.6-0.9,5.4-1.7c1.4-0.6,3.2-1.5,5.1-2.5c2-1.1,3.9-2.3,5.9-3.8v-35.7h5.9v48.7H131.3z"/>
		<path class="st1" d="M149.7,1115.8V1105h5.8v10.8L149.7,1115.8z M149.7,1170v-48.7h5.8v48.7H149.7z"/>
		<path class="st1" d="M211.4,1170c0.1-2.1,0.1-3.8,0.2-5c-0.9,0.8-2,1.5-3.3,2.3c-1.7,1-3.8,1.9-6.2,2.6c-2.4,0.8-5.1,1.1-8.3,1.1
			c-4.4,0-8.2-0.7-11.5-2.1c-3.3-1.4-6-3.3-8.2-5.7c-2.2-2.4-3.8-5.1-4.9-8.1c-1.1-3-1.7-6.2-1.7-9.4c0-3.6,0.6-6.9,1.8-10
			c1.2-3.1,3-5.8,5.2-8.1c2.3-2.3,5-4.1,8.2-5.4c3.2-1.3,6.8-1.9,10.8-1.9c3.2,0,6.3,0.5,9.3,1.4c3,0.9,5.8,2.4,8.5,4.3v-21h5.9v65
			H211.4z M211.4,1133.2c-2.8-2.7-5.7-4.6-8.6-5.7c-2.9-1.1-5.9-1.6-9.2-1.6c-3.3,0-6.2,0.5-8.7,1.5c-2.5,1-4.6,2.5-6.4,4.3
			c-1.8,1.8-3.1,3.9-4,6.3c-0.9,2.4-1.3,5-1.3,7.7c0,2.6,0.4,5.1,1.3,7.5c0.9,2.4,2.2,4.5,3.9,6.3c1.7,1.8,3.9,3.3,6.4,4.4
			c2.5,1.1,5.5,1.6,8.8,1.6c2.5,0,4.7-0.3,6.7-0.9c1.9-0.6,3.6-1.3,5.1-2.1c0.7-0.4,1.4-0.8,2-1.3c0.6-0.4,1.2-0.9,1.8-1.3
			c0.4-0.3,0.8-0.7,1.1-1c0.4-0.3,0.7-0.6,1-0.9L211.4,1133.2z"/>
		<path class="st1" d="M270.1,1170c-0.8-0.9-1.5-1.8-1.9-2.5c-0.4-0.7-0.8-1.4-1-2.1c-1.4,1.1-2.9,2-4.5,2.8
			c-1.6,0.7-3.2,1.3-4.7,1.7c-1.6,0.4-3,0.7-4.4,0.9c-1.4,0.2-2.6,0.3-3.7,0.3c-4,0-7.3-0.4-10-1.2c-2.7-0.8-4.9-1.9-6.6-3.2
			c-1.7-1.3-2.9-2.9-3.6-4.6c-0.7-1.7-1.1-3.5-1.1-5.4c0-3.5,0.9-6.3,2.6-8.6c1.8-2.3,4.3-4.1,7.6-5.6c3.3-1.4,7.3-2.5,12-3.4
			c4.7-0.8,10-1.5,15.8-2v-0.3c0-1.8-0.2-3.4-0.6-4.8c-0.4-1.4-1.2-2.5-2.3-3.4c-1.1-0.9-2.6-1.6-4.5-2.1c-1.9-0.5-4.3-0.7-7.2-0.7
			c-2.3,0-4.3,0.2-6.1,0.5c-1.8,0.3-3.1,0.6-3.9,0.9c-0.8,0.3-1.2,0.4-1.3,0.5l-0.6-5.9c0.1-0.1,0.7-0.2,1.7-0.4
			c1-0.2,2.5-0.5,4.4-0.7c1.9-0.3,3.9-0.4,5.9-0.4c7,0,12.2,1.4,15.4,4.1c3.2,2.7,4.9,6.8,4.9,12.1v23.4c0,1,0,1.8,0.1,2.4
			c0.1,0.6,0.2,1.1,0.3,1.6c0.2,0.5,0.4,0.9,0.8,1.4c0.4,0.4,0.9,1,1.5,1.8l2.6,3H270.1z M266.5,1142.7c-5.7,0.5-10.7,1.1-14.7,1.8
			c-4.1,0.7-7.4,1.6-10,2.7c-2.6,1.1-4.5,2.3-5.7,3.9c-1.2,1.5-1.8,3.3-1.8,5.4c0,0.8,0.2,1.8,0.5,2.8c0.4,1,1.1,2,2.2,2.9
			c1.1,0.9,2.7,1.7,4.7,2.3c2,0.6,4.8,0.9,8.2,0.9c0.9,0,2-0.1,3.4-0.3c1.4-0.2,2.8-0.5,4.4-1c1.5-0.5,3.1-1.2,4.6-2.1
			c1.5-0.9,2.9-2.1,4.2-3.5L266.5,1142.7z"/>
		<path class="st1" d="M354,1170v-35.2c0-1.3-0.1-2.5-0.4-3.6c-0.3-1.1-0.8-2.1-1.5-3c-0.6-0.7-1.5-1.3-2.6-1.8
			c-1.1-0.5-2.7-0.8-4.7-0.8c-2.4,0-5.1,0.6-8,1.9c-1.5,0.6-3.1,1.4-4.8,2.4c-1.7,1-3.4,2.3-5.2,3.8v36.1H321v-36.2
			c0-1.4-0.2-2.5-0.5-3.4c-0.4-0.9-0.9-1.7-1.7-2.3c-0.8-0.7-1.7-1.2-2.8-1.6c-1.1-0.4-2.4-0.6-4.1-0.6c-1.1,0-2.4,0.2-3.8,0.5
			c-1.5,0.3-3,0.8-4.6,1.5c-1.6,0.6-3.2,1.4-4.8,2.5c-1.6,1-3.3,2.3-4.9,3.7v36h-5.9v-48.7h5.9l-0.1,5.9c1.6-1.1,3.1-2.1,4.5-2.9
			c1.4-0.8,2.8-1.5,4.1-2.1c1.8-0.7,3.5-1.2,5.1-1.5c1.6-0.3,3.1-0.5,4.6-0.5c2.1,0,4,0.3,5.8,0.9c1.7,0.6,3.2,1.4,4.5,2.4
			c0.8,0.6,1.4,1.3,2,2.1c0.6,0.8,1,1.5,1.4,2.3c3.3-2.5,6.4-4.4,9.3-5.5c3.5-1.4,6.8-2.1,10-2.1c2.6,0,4.8,0.4,6.7,1.1
			c1.9,0.8,3.5,1.8,4.8,3.1c1.2,1.3,2.1,2.8,2.7,4.5c0.6,1.7,0.8,3.5,0.8,5.4v35.6H354z"/>
		<path class="st1" d="M423.8,1155.1c-1.1,3-2.7,5.7-4.9,8.1c-2.2,2.3-5,4.2-8.4,5.7c-3.4,1.5-7.5,2.2-12.1,2.2
			c-4.5,0-8.5-0.7-11.9-2.1c-3.4-1.4-6.2-3.2-8.5-5.6c-2.3-2.3-4-5.1-5.1-8.1c-1.1-3.1-1.7-6.3-1.7-9.6c0-4,0.7-7.6,2.1-10.8
			c1.4-3.1,3.4-5.8,5.9-8c2.5-2.1,5.4-3.8,8.7-4.9c3.3-1.1,6.8-1.7,10.5-1.7c3.7,0,7.3,0.6,10.5,1.7c3.3,1.1,6.2,2.8,8.6,5
			c2.5,2.2,4.4,4.8,5.8,8c1.4,3.2,2.1,6.7,2.1,10.8C425.4,1148.9,424.9,1152,423.8,1155.1z M419.7,1145.7c0-3.1-0.5-5.8-1.6-8.3
			c-1.1-2.5-2.6-4.5-4.5-6.3c-1.9-1.7-4.1-3-6.7-3.9c-2.6-0.9-5.4-1.3-8.5-1.3c-3.1,0-5.9,0.4-8.5,1.3c-2.6,0.9-4.9,2.2-6.8,3.9
			c-1.9,1.7-3.4,3.8-4.5,6.3c-1.1,2.5-1.6,5.2-1.6,8.3c0,2.6,0.4,5.1,1.3,7.4c0.9,2.4,2.2,4.5,3.9,6.4c1.8,1.8,4,3.3,6.7,4.4
			c2.7,1.1,5.9,1.6,9.6,1.6c3.6,0,6.7-0.5,9.4-1.6c2.7-1.1,4.9-2.6,6.6-4.4c1.7-1.8,3-3.9,3.9-6.3
			C419.1,1150.8,419.6,1148.3,419.7,1145.7L419.7,1145.7z"/>
		<path class="st1" d="M479.3,1161.8c-1,1.6-2.6,3.2-4.6,4.6c-2.1,1.5-4.6,2.6-7.5,3.3c-2.9,0.8-6.3,1.2-10,1.2
			c-2.9,0-5.6-0.2-8-0.6c-2.5-0.4-4.7-1-6.9-1.6c-2.1-0.6-4-1.5-5.6-2.6c-1.6-1.1-3.5-2.6-5.5-4.4l4.3-4.2c2.1,2.3,5,4.2,8.5,5.7
			c3.5,1.4,7.9,2.1,12.9,2.1c2.7,0,5.3-0.3,7.9-0.8c2.6-0.6,4.8-1.4,6.6-2.6c2.5-1.7,3.7-3.7,3.7-6.1c0-0.8-0.2-1.7-0.5-2.6
			c-0.4-0.9-0.9-1.7-1.7-2.4c-0.6-0.5-1.2-0.9-1.9-1.3c-0.7-0.4-1.7-0.8-2.9-1.1c-1.2-0.3-2.8-0.7-4.6-1c-1.8-0.3-4.2-0.7-6.9-1.2
			c-2.7-0.4-5-0.8-6.9-1.1c-1.9-0.3-3.5-0.7-4.9-1c-1.4-0.3-2.5-0.7-3.5-1.2c-1-0.4-1.9-1-2.8-1.7c-3.1-2.2-4.7-5.1-4.7-8.5
			c0-2.3,0.6-4.2,1.8-5.9c1.2-1.6,2.9-2.9,4.9-3.9c4-1.8,9.4-2.8,16.2-2.8c2.5,0,4.9,0.2,7.2,0.5c2.4,0.3,4.7,1,6.9,2
			c1.5,0.6,2.8,1.4,4.2,2.4s2.8,2.5,4.4,4.5l-4.5,3.9c-1.6-2.4-3.9-4.3-6.7-5.7c-2.9-1.4-6.7-2.1-11.5-2.1c-2.7,0-5.2,0.2-7.7,0.5
			c-2.4,0.3-4.5,0.9-6.1,1.8c-2.3,1.2-3.4,2.7-3.4,4.6c0,0.7,0.1,1.3,0.4,1.9s0.8,1.2,1.6,1.8c0.6,0.4,1.2,0.8,1.8,1.1
			c0.7,0.3,1.6,0.6,2.7,0.9c1.1,0.3,2.6,0.6,4.5,1c1.9,0.3,4.3,0.7,7.2,1.2c2.7,0.4,5,0.9,6.9,1.2c1.9,0.4,3.6,0.8,5.1,1.2
			c1.5,0.4,2.7,0.9,3.8,1.4c1.1,0.5,2,1.2,2.9,1.9c1.4,1.1,2.5,2.5,3.2,4.1c0.8,1.6,1.1,3.3,1.1,5.1
			C480.9,1158.1,480.3,1160.2,479.3,1161.8z"/>
		<path class="st1" d="M553.7,1170c0.1-2.1,0.1-3.8,0.2-5c-0.9,0.8-2,1.5-3.3,2.3c-1.7,1-3.8,1.9-6.2,2.6c-2.4,0.8-5.1,1.1-8.3,1.1
			c-4.4,0-8.2-0.7-11.5-2.1c-3.3-1.4-6-3.3-8.2-5.7c-2.2-2.4-3.8-5.1-4.9-8.1c-1.1-3-1.7-6.2-1.7-9.4c0-3.6,0.6-6.9,1.8-10
			c1.2-3.1,3-5.8,5.2-8.1c2.3-2.3,5-4.1,8.2-5.4c3.2-1.3,6.8-1.9,10.8-1.9c3.2,0,6.3,0.5,9.3,1.4s5.8,2.4,8.5,4.3v-21h5.9v65H553.7z
			 M553.8,1133.2c-2.8-2.7-5.7-4.6-8.6-5.7c-2.9-1.1-5.9-1.6-9.2-1.6c-3.3,0-6.2,0.5-8.7,1.5c-2.5,1-4.6,2.5-6.4,4.3
			c-1.8,1.8-3.1,3.9-4,6.3c-0.9,2.4-1.3,5-1.3,7.7c0,2.6,0.4,5.1,1.3,7.5c0.9,2.4,2.2,4.5,3.9,6.3c1.7,1.8,3.9,3.3,6.4,4.4
			c2.5,1.1,5.5,1.6,8.8,1.6c2.5,0,4.7-0.3,6.7-0.9c1.9-0.6,3.6-1.3,5.1-2.1c0.7-0.4,1.4-0.8,2-1.3c0.6-0.4,1.2-0.9,1.8-1.3
			c0.4-0.3,0.8-0.7,1.1-1c0.4-0.3,0.7-0.6,1-0.9L553.8,1133.2z"/>
		<path class="st1" d="M577.1,1147.4c0.2,3.3,1,6.2,2.3,8.5c1.3,2.3,2.9,4.2,4.9,5.6c1.9,1.4,4,2.4,6.3,3.1s4.5,0.9,6.7,0.9
			c2.3,0,4.8-0.2,7.3-0.6c2.5-0.4,4.9-0.9,7.2-1.4c2.3-0.5,4.2-1.1,5.9-1.6c1.7-0.5,2.9-0.9,3.5-1.1l0.4,5.5c-3.3,1-6.3,1.8-8.7,2.4
			c-2.5,0.6-5.1,1.1-7.9,1.6c-2.8,0.5-5.3,0.8-7.6,0.8c-3.4,0-6.8-0.5-10-1.6c-3.3-1.1-6.2-2.9-8.8-5.3c-2.2-2.2-4-4.8-5.3-8
			c-1.3-3.1-2-6.8-2-11.1c0-3.9,0.7-7.3,2.1-10.4c1.4-3.1,3.3-5.7,5.8-7.9c2.3-2,5-3.6,8-4.8s6.4-1.8,10.3-1.8c3.4,0,6.6,0.7,9.7,2
			c3,1.3,5.8,3.2,8.2,5.7c2,2.1,3.6,4.7,4.8,7.9c1.3,3.1,1.9,7,1.9,11.6H577.1z M615.7,1142.1c-0.3-2.1-1-4.2-2-6.2
			c-1-2-2.3-3.7-3.9-5.2c-1.6-1.5-3.4-2.7-5.5-3.6c-2.1-0.9-4.4-1.3-6.9-1.3c-2.8,0-5.5,0.4-7.8,1.3c-2.4,0.9-4.4,2-6.2,3.6
			c-1.8,1.5-3.2,3.2-4.2,5.2c-1.1,2-1.7,4-1.9,6.2L615.7,1142.1L615.7,1142.1z"/>
		<path class="st1" d="M656.5,1170v-65h5.8v65H656.5z"/>
		<path class="st1" d="M726.8,1155.1c-1.1,3-2.7,5.7-4.9,8.1c-2.2,2.3-5,4.2-8.4,5.7c-3.4,1.5-7.5,2.2-12.1,2.2
			c-4.5,0-8.5-0.7-11.9-2.1c-3.4-1.4-6.2-3.2-8.5-5.6c-2.3-2.3-4-5.1-5.1-8.1c-1.1-3.1-1.7-6.3-1.7-9.6c0-4,0.7-7.6,2.1-10.8
			c1.4-3.1,3.4-5.8,5.9-8c2.5-2.1,5.4-3.8,8.7-4.9c3.3-1.1,6.8-1.7,10.5-1.7c3.7,0,7.3,0.6,10.5,1.7c3.3,1.1,6.2,2.8,8.6,5
			c2.5,2.2,4.4,4.8,5.8,8c1.4,3.2,2.1,6.7,2.1,10.8C728.4,1148.9,727.9,1152,726.8,1155.1z M722.6,1145.7c0-3.1-0.5-5.8-1.6-8.3
			c-1.1-2.5-2.6-4.5-4.5-6.3c-1.9-1.7-4.1-3-6.7-3.9c-2.6-0.9-5.4-1.3-8.5-1.3c-3.1,0-5.9,0.4-8.5,1.3c-2.6,0.9-4.9,2.2-6.8,3.9
			c-1.9,1.7-3.4,3.8-4.5,6.3c-1.1,2.5-1.6,5.2-1.6,8.3c0,2.6,0.4,5.1,1.3,7.4c0.9,2.4,2.2,4.5,3.9,6.4c1.8,1.8,4,3.3,6.7,4.4
			c2.7,1.1,5.9,1.6,9.6,1.6c3.6,0,6.7-0.5,9.4-1.6c2.7-1.1,4.9-2.6,6.6-4.4c1.7-1.8,3-3.9,3.9-6.3
			C722.1,1150.8,722.5,1148.3,722.6,1145.7L722.6,1145.7z"/>
		<path class="st1" d="M802.2,1190.8v-25.6c-1.1,0.7-2.1,1.4-3.1,2s-2,1.1-3,1.6c-2.5,1-4.7,1.6-6.7,1.9c-2,0.3-3.7,0.4-5.1,0.4
			c-4.2,0-8-0.7-11.3-2.2c-3.3-1.4-6-3.3-8-5.5c-2.5-2.7-4.2-5.6-5.2-8.6c-1-3.1-1.5-6.1-1.5-9.2c0-3.6,0.6-6.8,1.8-9.7
			c1.2-2.9,2.8-5.4,4.8-7.6c4.9-5.2,11.4-7.9,19.5-7.9c2.4,0,4.6,0.2,6.6,0.7c2,0.4,3.9,1.1,5.6,1.8c1.1,0.4,2.1,0.9,3.1,1.5
			c0.9,0.5,1.8,1.1,2.6,1.7l-0.1-4.7h5.9v69.5H802.2z M802.2,1133.2c-1.2-1.2-2.4-2.2-3.8-3.1c-1.4-0.9-2.7-1.7-4.1-2.3
			c-1.7-0.8-3.3-1.3-5-1.5c-1.6-0.3-3.3-0.4-5-0.4c-3.4,0-6.4,0.6-8.9,1.7s-4.6,2.6-6.4,4.4c-1.7,1.8-2.9,3.9-3.8,6.2
			c-0.9,2.3-1.3,4.8-1.3,7.4c0,3.1,0.5,5.8,1.5,8.1c1,2.3,2.2,4.3,3.7,5.8c2,2.1,4.3,3.7,6.9,4.6c2.6,1,5.3,1.5,8.2,1.5
			c2,0,3.8-0.2,5.4-0.5c1.6-0.4,3-0.8,4.2-1.3c1.1-0.5,2.4-1.2,3.7-2.1c1.4-0.9,2.9-2,4.5-3.6V1133.2z"/>
		<path class="st1" d="M862.4,1170c0-0.1,0-0.5,0-1.2c0-0.7,0.1-1.5,0.1-2.6c0-1.1,0.1-2,0.1-2.8c-1.7,1.1-3.3,2.1-4.8,2.9
			c-1.5,0.8-3.1,1.6-4.7,2.2c-4.2,1.7-8.3,2.5-12.2,2.5c-5.9,0-10.4-1.6-13.5-4.8c-1.4-1.5-2.4-3.1-3.1-4.9c-0.7-1.8-1-4-1-6.6
			v-33.5h5.8v33.4c0,1.7,0.2,3.1,0.5,4.4c0.3,1.3,1,2.4,2,3.3c0.7,0.7,1.8,1.4,3.3,2.1c1.4,0.7,3.5,1,6.2,1c1.5,0,3.1-0.2,4.9-0.5
			c1.8-0.4,3.6-0.9,5.4-1.7c1.4-0.6,3.2-1.5,5.1-2.5c2-1.1,3.9-2.3,5.9-3.8v-35.7h5.9v48.7H862.4z"/>
		<path class="st1" d="M885.9,1147.4c0.2,3.3,1,6.2,2.3,8.5c1.3,2.3,2.9,4.2,4.9,5.6c1.9,1.4,4,2.4,6.3,3.1s4.5,0.9,6.7,0.9
			c2.3,0,4.8-0.2,7.3-0.6c2.5-0.4,4.9-0.9,7.2-1.4c2.3-0.5,4.2-1.1,5.9-1.6c1.7-0.5,2.9-0.9,3.5-1.1l0.4,5.5c-3.3,1-6.3,1.8-8.7,2.4
			c-2.5,0.6-5.1,1.1-7.9,1.6c-2.8,0.5-5.3,0.8-7.6,0.8c-3.4,0-6.8-0.5-10-1.6c-3.3-1.1-6.2-2.9-8.8-5.3c-2.2-2.2-4-4.8-5.3-8
			c-1.3-3.1-2-6.8-2-11.1c0-3.9,0.7-7.3,2.1-10.4c1.4-3.1,3.3-5.7,5.8-7.9c2.3-2,5-3.6,8-4.8s6.4-1.8,10.3-1.8c3.4,0,6.6,0.7,9.7,2
			c3,1.3,5.8,3.2,8.2,5.7c2,2.1,3.6,4.7,4.8,7.9c1.3,3.1,1.9,7,1.9,11.6H885.9z M924.5,1142.1c-0.3-2.1-1-4.2-2-6.2
			c-1-2-2.3-3.7-3.9-5.2c-1.6-1.5-3.4-2.7-5.5-3.6c-2.1-0.9-4.4-1.3-6.9-1.3c-2.8,0-5.5,0.4-7.8,1.3c-2.4,0.9-4.4,2-6.2,3.6
			s-3.2,3.2-4.2,5.2c-1.1,2-1.7,4-1.9,6.2L924.5,1142.1L924.5,1142.1z"/>
		<path class="st1" d="M1004.1,1169.1c-3.3,1.3-7.1,1.9-11.1,1.9c-2.1,0-4.5-0.2-7.1-0.6c-2.6-0.4-5-1.2-7.3-2.5
			c-2.3-1.3-4.2-3.1-5.8-5.5c-1.6-2.4-2.3-5.6-2.3-9.5v-26.1h-13.9v-5.4h13.9v-13.6h5.8v13.6h31.1v5.4h-31.1v26.2
			c0,2.6,0.5,4.7,1.4,6.4c0.9,1.6,2.2,2.9,3.8,3.9c1.6,0.9,3.4,1.6,5.4,1.9c2,0.3,4.1,0.5,6.2,0.5c3.3,0,6.4-0.6,9.2-1.8
			c2.9-1.2,5.6-2.4,8.1-3.7l2.5,5.1C1010.4,1166.5,1007.4,1167.9,1004.1,1169.1z"/>
		<path class="st1" d="M1018.1,1147.4c0.2,3.3,1,6.2,2.3,8.5c1.3,2.3,2.9,4.2,4.9,5.6c1.9,1.4,4,2.4,6.3,3.1s4.5,0.9,6.7,0.9
			c2.3,0,4.8-0.2,7.3-0.6c2.5-0.4,4.9-0.9,7.2-1.4c2.3-0.5,4.2-1.1,5.9-1.6c1.7-0.5,2.9-0.9,3.5-1.1l0.4,5.5c-3.3,1-6.3,1.8-8.7,2.4
			c-2.5,0.6-5.1,1.1-7.9,1.6c-2.8,0.5-5.3,0.8-7.6,0.8c-3.4,0-6.8-0.5-10-1.6c-3.3-1.1-6.2-2.9-8.8-5.3c-2.2-2.2-4-4.8-5.3-8
			c-1.3-3.1-2-6.8-2-11.1c0-3.9,0.7-7.3,2.1-10.4c1.4-3.1,3.3-5.7,5.8-7.9c2.3-2,5-3.6,8-4.8s6.4-1.8,10.3-1.8c3.4,0,6.6,0.7,9.7,2
			c3,1.3,5.8,3.2,8.2,5.7c2,2.1,3.6,4.7,4.8,7.9c1.3,3.1,1.9,7,1.9,11.6H1018.1z M1056.7,1142.1c-0.3-2.1-1-4.2-2-6.2
			c-1-2-2.3-3.7-3.9-5.2c-1.6-1.5-3.4-2.7-5.5-3.6c-2.1-0.9-4.4-1.3-6.9-1.3c-2.8,0-5.5,0.4-7.8,1.3c-2.4,0.9-4.4,2-6.2,3.6
			s-3.2,3.2-4.2,5.2c-1.1,2-1.7,4-1.9,6.2L1056.7,1142.1L1056.7,1142.1z"/>
		<path class="st1" d="M1097.3,1115.8V1105h5.8v10.8L1097.3,1115.8z M1097.3,1170v-48.7h5.8v48.7H1097.3z"/>
		<path class="st1" d="M1181.7,1170v-35.2c0-1.3-0.1-2.5-0.4-3.6c-0.3-1.1-0.8-2.1-1.5-3c-0.6-0.7-1.5-1.3-2.6-1.8
			c-1.1-0.5-2.7-0.8-4.7-0.8c-2.4,0-5.1,0.6-8,1.9c-1.5,0.6-3.1,1.4-4.8,2.4c-1.7,1-3.4,2.3-5.2,3.8v36.1h-5.8v-36.2
			c0-1.4-0.2-2.5-0.5-3.4c-0.4-0.9-0.9-1.7-1.7-2.3c-0.8-0.7-1.7-1.2-2.8-1.6c-1.1-0.4-2.4-0.6-4.1-0.6c-1.1,0-2.4,0.2-3.8,0.5
			c-1.5,0.3-3,0.8-4.6,1.5c-1.6,0.6-3.2,1.4-4.8,2.5c-1.6,1-3.3,2.3-4.9,3.7v36h-5.9v-48.7h5.9l-0.1,5.9c1.6-1.1,3.1-2.1,4.5-2.9
			c1.4-0.8,2.8-1.5,4.1-2.1c1.8-0.7,3.5-1.2,5.1-1.5c1.6-0.3,3.1-0.5,4.6-0.5c2.1,0,4,0.3,5.8,0.9c1.7,0.6,3.2,1.4,4.5,2.4
			c0.8,0.6,1.4,1.3,2,2.1c0.6,0.8,1,1.5,1.4,2.3c3.3-2.5,6.4-4.4,9.3-5.5c3.5-1.4,6.8-2.1,10-2.1c2.6,0,4.8,0.4,6.7,1.1
			c1.9,0.8,3.5,1.8,4.8,3.1c1.2,1.3,2.1,2.8,2.7,4.5c0.6,1.7,0.8,3.5,0.8,5.4v35.6H1181.7z"/>
		<path class="st1" d="M1251.2,1154.7c-1,3.1-2.8,5.9-5.2,8.6c-2.1,2.2-4.7,4.1-8,5.5c-3.3,1.5-7.1,2.2-11.3,2.2
			c-1.4,0-3.1-0.1-5.1-0.4c-2-0.3-4.2-0.9-6.7-1.9c-0.9-0.4-1.9-1-3-1.6c-1-0.6-2.1-1.3-3.1-2v25.6h-5.9v-69.5h5.9l-0.1,4.7
			c0.8-0.6,1.6-1.2,2.6-1.7c0.9-0.5,1.9-1,3.1-1.5c1.7-0.8,3.6-1.4,5.6-1.8c2-0.4,4.2-0.7,6.6-0.7c8.1,0,14.6,2.6,19.5,7.9
			c2,2.2,3.6,4.7,4.8,7.6c1.2,2.9,1.8,6.1,1.8,9.7C1252.7,1148.5,1252.2,1151.6,1251.2,1154.7z M1246.9,1145.5c0-2.6-0.4-5-1.3-7.4
			c-0.9-2.3-2.1-4.4-3.8-6.2c-1.7-1.8-3.8-3.3-6.3-4.4c-2.5-1.1-5.5-1.7-8.9-1.7c-1.7,0-3.3,0.1-5,0.4s-3.3,0.8-5,1.5
			c-1.3,0.6-2.7,1.4-4.1,2.3c-1.4,0.9-2.6,2-3.8,3.1v24.9c1.6,1.5,3.1,2.7,4.5,3.6c1.4,0.9,2.6,1.5,3.7,2.1c1.2,0.5,2.6,0.9,4.2,1.3
			c1.6,0.4,3.4,0.5,5.4,0.5c2.9,0,5.7-0.5,8.3-1.5c2.6-1,4.9-2.5,6.9-4.6c1.5-1.6,2.7-3.6,3.7-5.9
			C1246.4,1151.2,1246.9,1148.5,1246.9,1145.5L1246.9,1145.5z"/>
		<path class="st1" d="M1313,1155.1c-1.1,3-2.7,5.7-4.9,8.1c-2.2,2.3-5,4.2-8.4,5.7c-3.4,1.5-7.5,2.2-12.1,2.2
			c-4.5,0-8.5-0.7-11.9-2.1c-3.4-1.4-6.2-3.2-8.5-5.6c-2.3-2.3-4-5.1-5.1-8.1c-1.1-3.1-1.7-6.3-1.7-9.6c0-4,0.7-7.6,2.1-10.8
			c1.4-3.1,3.4-5.8,5.9-8c2.5-2.1,5.4-3.8,8.7-4.9c3.3-1.1,6.8-1.7,10.6-1.7c3.7,0,7.3,0.6,10.5,1.7c3.3,1.1,6.2,2.8,8.6,5
			c2.5,2.2,4.4,4.8,5.8,8c1.4,3.2,2.1,6.7,2.1,10.8C1314.6,1148.9,1314,1152,1313,1155.1z M1308.8,1145.7c0-3.1-0.5-5.8-1.6-8.3
			c-1.1-2.5-2.6-4.5-4.5-6.3c-1.9-1.7-4.1-3-6.7-3.9c-2.6-0.9-5.4-1.3-8.5-1.3c-3.1,0-5.9,0.4-8.5,1.3c-2.6,0.9-4.9,2.2-6.8,3.9
			c-1.9,1.7-3.4,3.8-4.5,6.3c-1.1,2.5-1.6,5.2-1.6,8.3c0,2.6,0.4,5.1,1.3,7.4c0.9,2.4,2.2,4.5,3.9,6.4c1.8,1.8,4,3.3,6.7,4.4
			c2.7,1.1,5.9,1.6,9.6,1.6c3.6,0,6.7-0.5,9.4-1.6c2.7-1.1,4.9-2.6,6.6-4.4c1.7-1.8,3-3.9,3.9-6.3
			C1308.3,1150.8,1308.7,1148.3,1308.8,1145.7L1308.8,1145.7z"/>
		<path class="st1" d="M1360.5,1131c-1.3-1.4-2.3-2.4-2.9-2.9c-0.7-0.5-1.3-0.9-1.8-1.2c-0.7-0.3-1.5-0.6-2.5-0.8
			c-0.9-0.2-2-0.3-3.2-0.3c-1.3,0-2.7,0.2-4.2,0.5c-1.5,0.3-3.2,0.9-4.9,1.6c-3,1.5-5.9,3.3-8.7,5.6v36.5h-5.9v-48.7h5.9l-0.1,5.5
			c1.1-0.8,2.1-1.5,3.1-2.1c1-0.6,2.1-1.2,3.3-1.7c1.7-0.8,3.5-1.4,5.4-2c1.9-0.5,3.9-0.8,6-0.8c1.3,0,2.7,0.1,4.1,0.3
			c1.4,0.2,2.7,0.6,4,1.3c1,0.4,1.9,1,2.8,1.6c0.9,0.6,2,1.6,3.5,3L1360.5,1131z"/>
		<path class="st1" d="M1413.9,1169.1c-3.3,1.3-7.1,1.9-11.1,1.9c-2.1,0-4.5-0.2-7.1-0.6s-5-1.2-7.3-2.5c-2.3-1.3-4.2-3.1-5.8-5.5
			c-1.6-2.4-2.3-5.6-2.3-9.5v-26.1h-13.9v-5.4h13.9v-13.6h5.8v13.6h31.1v5.4H1386v26.2c0,2.6,0.5,4.7,1.4,6.4
			c0.9,1.6,2.2,2.9,3.8,3.9c1.6,0.9,3.4,1.6,5.4,1.9c2,0.3,4.1,0.5,6.2,0.5c3.3,0,6.4-0.6,9.3-1.8c2.9-1.2,5.6-2.4,8.1-3.7l2.5,5.1
			C1420.2,1166.5,1417.2,1167.9,1413.9,1169.1z"/>
		<path class="st1" d="M1466.9,1170c-0.8-0.9-1.5-1.8-1.9-2.5s-0.8-1.4-1-2.1c-1.4,1.1-2.9,2-4.5,2.8c-1.6,0.7-3.2,1.3-4.7,1.7
			c-1.6,0.4-3,0.7-4.4,0.9c-1.4,0.2-2.6,0.3-3.7,0.3c-4,0-7.3-0.4-10-1.2c-2.7-0.8-4.9-1.9-6.6-3.2c-1.7-1.3-2.9-2.9-3.6-4.6
			c-0.7-1.7-1.1-3.5-1.1-5.4c0-3.5,0.9-6.3,2.6-8.6c1.8-2.3,4.3-4.1,7.6-5.6c3.3-1.4,7.3-2.5,12-3.4c4.7-0.8,10-1.5,15.8-2v-0.3
			c0-1.8-0.2-3.4-0.6-4.8c-0.4-1.4-1.2-2.5-2.3-3.4c-1.1-0.9-2.6-1.6-4.5-2.1c-1.9-0.5-4.3-0.7-7.2-0.7c-2.3,0-4.3,0.2-6.1,0.5
			s-3.1,0.6-3.9,0.9c-0.8,0.3-1.2,0.4-1.3,0.5l-0.6-5.9c0.1-0.1,0.7-0.2,1.7-0.4c1-0.2,2.5-0.5,4.4-0.7c1.9-0.3,3.9-0.4,5.9-0.4
			c7,0,12.2,1.4,15.4,4.1c3.2,2.7,4.9,6.8,4.9,12.1v23.4c0,1,0,1.8,0.1,2.4c0.1,0.6,0.2,1.1,0.3,1.6c0.2,0.5,0.4,0.9,0.8,1.4
			c0.4,0.4,0.9,1,1.5,1.8l2.6,3H1466.9z M1463.4,1142.7c-5.7,0.5-10.7,1.1-14.7,1.8c-4.1,0.7-7.4,1.6-10,2.7
			c-2.6,1.1-4.5,2.3-5.7,3.9c-1.2,1.5-1.8,3.3-1.8,5.4c0,0.8,0.2,1.8,0.5,2.8c0.4,1,1.1,2,2.2,2.9c1.1,0.9,2.7,1.7,4.7,2.3
			s4.8,0.9,8.2,0.9c0.9,0,2-0.1,3.4-0.3c1.4-0.2,2.8-0.5,4.4-1c1.5-0.5,3.1-1.2,4.6-2.1c1.5-0.9,2.9-2.1,4.2-3.5L1463.4,1142.7z"/>
	</g>
</g>
<g>
	<linearGradient id="SVGID_1_" gradientUnits="userSpaceOnUse" x1="377.0794" y1="169.2002" x2="982.2726" y2="388.6659">
		<stop  offset="0" style="stop-color:#00B6BE"/>
		<stop  offset="1" style="stop-color:#00EA6C"/>
	</linearGradient>
	<path class="st2" d="M994.1,522.3c-16.2-10.2-23.1-25-25.1-42.7c-2.2-19.3,1.6-38.2,3.8-57.2c4.3-36,5.6-71.9-2.8-107.6
		c-2.3-10-5.4-19.8-9.5-29.3c-1.5-3.6-3.1-7.2-4.1-10.9c-2-7.9,2.1-15.5,9.4-18.2c6.9-2.5,12.5,0.4,16.4,8.5
		c14.5,29.8,19.2,61.6,21.2,94.3c1.7,28.6-3.9,56.4-7.2,84.4c-1.2,9.9-2.1,19.8-0.9,29.9c1.2,9.4,4.1,17.6,11.6,24.1
		c6.4,5.5,7.1,15,2.2,21.1C1005,524.2,999.5,524.5,994.1,522.3z"/>
	<linearGradient id="SVGID_2_" gradientUnits="userSpaceOnUse" x1="295.316" y1="394.669" x2="900.5092" y2="614.1347">
		<stop  offset="0" style="stop-color:#00B6BE"/>
		<stop  offset="1" style="stop-color:#00EA6C"/>
	</linearGradient>
	<path class="st3" d="M987.5,535.2c-17.7-7.3-33.7-4.3-49.3,4.3c-17,9.4-30.2,23.4-44.3,36.3c-26.9,24.4-55.4,46.3-89.3,60.1
		c-9.5,3.9-19.3,7-29.3,9.2c-3.8,0.8-7.6,1.6-11.2,3c-7.6,2.9-11.4,10.7-9.4,18.2c2,7,7.6,9.9,16.5,8.4c32.7-5.4,61.3-20,89.1-37.4
		c24.3-15.2,43.7-35.9,64.6-54.8c7.4-6.7,14.9-13.2,23.8-18c8.3-4.5,16.7-6.9,26.3-4.5c8.2,2,16.3-2.9,18.5-10.5
		C995.3,543,992.3,538.3,987.5,535.2z"/>
	<linearGradient id="SVGID_3_" gradientUnits="userSpaceOnUse" x1="294.0365" y1="398.1974" x2="899.2297" y2="617.663">
		<stop  offset="0" style="stop-color:#00B6BE"/>
		<stop  offset="1" style="stop-color:#00EA6C"/>
	</linearGradient>
	<path class="st4" d="M902.6,539.6c-8.1-13.8-26.3-17.7-44.5-10c-19.3,8.2-36.2,20.4-54.4,30.4c-36.9,20.3-75.5,34.6-118.4,28.5
		c-57.3-8.1-107.6-30.4-144.6-77C523.6,490,514.1,465,508,438.5c-0.3-1.4-0.7-2.8-1-4.2c-1.1-4.3-5.6-6.6-9.8-5.2
		c-4,1.4-8.3,2.8-12.6,4.2c-3.7,1.2-5.8,5-5,8.8c0.1,0.3,0.1,0.6,0.2,0.9C494.3,514,536,563.2,600.2,593.7
		c37.8,18,78,28.1,120.3,23.8c37.8-3.8,72.6-17.5,105.1-37.2c13.8-8.3,27.5-16.7,42-23.7c5.3-2.5,9.5-3.1,14.3,1.4
		c5.6,5.4,12.2,5,18.1,0.3C905.6,554,906.5,546.2,902.6,539.6z"/>
	<linearGradient id="SVGID_4_" gradientUnits="userSpaceOnUse" x1="390.4694" y1="132.2764" x2="995.6626" y2="351.7421">
		<stop  offset="0" style="stop-color:#00B6BE"/>
		<stop  offset="1" style="stop-color:#00EA6C"/>
	</linearGradient>
	<path class="st5" d="M945.9,449.3c-15.9,1.4-29.7-11.1-33.9-30.4c-4.5-20.4-4.3-41.4-6.8-62c-4.9-41.8-15.6-81.6-45.4-113.1
		c-39.8-42-87.1-70.1-146.6-73.2c-27.5-1.4-53.3,5.4-78.5,15.7c-1.4,0.6-2.7,1.1-4.1,1.6c-4.1,1.6-8.7-0.7-9.9-5
		c-1.2-4.1-2.5-8.4-3.9-12.7c-1.1-3.7,0.7-7.7,4.3-9.2c0.3-0.1,0.6-0.3,0.9-0.4c66.3-29.2,130.5-23.8,192.6,10.9
		c36.5,20.4,68.1,47.3,89.1,84.2c18.8,33,27.8,69.3,30.6,107.2c1.2,16.1,2.3,32.1,5.1,48c1,5.7,3,9.6,9.4,10.8
		c7.6,1.4,11.1,7,10.8,14.6C959.4,443.3,953.6,448.6,945.9,449.3z"/>
	<linearGradient id="SVGID_5_" gradientUnits="userSpaceOnUse" x1="344.7894" y1="258.2423" x2="949.9827" y2="477.7079">
		<stop  offset="0" style="stop-color:#00B6BE"/>
		<stop  offset="1" style="stop-color:#00EA6C"/>
	</linearGradient>
	<path class="st6" d="M1002.7,587.1c-9.7-14.9-30.1-17.2-45.4-5.1c-5,3.9-9.4,8.6-13.6,13.4c-24.3,27.3-51.1,51.7-82.3,70.9
		c-19.7,12.2-40.8,21.4-63.7,25.8c-4.1,0.8-8.3,1.5-11.1,5c-3.8,4.8-6.1,10-3,16.1c3.4,6.7,9.2,8.6,16.1,7.6
		c18.5-2.8,36-9.1,52.8-17.3c37.9-18.4,70-44.7,99-75c5.9-6.2,11.6-12.7,17.7-18.8c2.5-2.5,5.5-7.8,9.3-4.1c3.2,3-0.7,7.2-3.1,10.1
		c-9,10.9-17.6,22.2-27.2,32.6c-40.7,44.4-88.3,78.5-146.3,96.3c-59,18.1-117.6,15.7-175.5-6.1c-11.7-4.4-22.8-10.1-34-15.7
		c-40.9-20.7-76.5-48-105.2-83.9c-35.6-44.6-54-95.8-57.8-152.4c-1.3-19.4-0.8-38.7,1.2-57.8c52.8-14.9,178.4-61.4,199.6-68.5
		c13.9-4.6,16.4-9.7,12.1-23.5c-6-19.1-51.5-155.8-65.9-199.1c16.7-15.8,34.9-29.9,54.6-42c48.3-29.7,100.7-44.5,157.7-41.3
		c45.9,2.6,88.8,15.8,129.3,37.1c11,5.9,22.1,11.6,32.5,18.6c51.3,34.5,87.2,80.9,106.7,139.4c19.2,57.6,18.9,116.2,6.4,175.1
		c-2.9,13.8-7.1,27.4-10.8,41c-1,3.7-2.1,9.2-6.4,8.4c-5.2-1-2.6-6.4-2-9.9c1.5-8.5,3.5-16.8,5.1-25.3c8-41.2,10.7-82.5,3.8-124.1
		c-3.1-18.4-8-36.3-16.5-53c-3.1-6.2-8.1-9.9-15.5-8.7c-6.8,1.1-9.7,6-11.4,11.8c-1.2,4.3,0.6,8.2,2.3,12
		c9.7,21.2,14.4,43.7,15.9,66.8c2.4,36.6-2,72.6-10.1,108.2c-1.4,6.2-2.7,12.5-3,18.9c-0.9,19.5,12.8,34.7,30.5,34
		c12.7-0.5,21.9-7.2,28.1-18.1c9.8-17.2,13.3-36.4,17.3-55.4c15.5-73.1,13-145.1-16.6-214.7c-17.8-41.8-43.9-77.7-78.3-107.3
		c-38.9-33.4-83.6-56.3-132.7-70.5c-56.7-16.4-113.7-17.9-170.8-1.5c-37.3,10.7-71,28.5-102,51.5c-16.7,12.3-32.7,25.6-46.8,40.9
		c-4.6,5-6.2,12.1-4.1,18.6c11.6,35.5,50.3,153.5,55.7,170.2c2.2,6.7,0.8,11.7-6.9,14.2c-24.1,7.8-136.2,45-171,56.5
		c-6.6,2.2-11.3,7.8-12.5,14.6c-3.1,17.7-4.3,35.7-4.7,53.8c-0.7,38.5,4.3,76.3,17.2,113c19.8,56.1,54,101.6,100.3,138.3
		c40,31.8,84.6,55,134.4,67.3c44.1,10.9,88.5,11.4,132.8,1.6c73.9-16.3,134-55.9,184.6-111c13.1-14.3,26.7-28.3,35.1-46.2
		C1009.6,609.1,1009.7,597.8,1002.7,587.1z"/>
	<linearGradient id="SVGID_6_" gradientUnits="userSpaceOnUse" x1="354.3302" y1="231.9329" x2="959.5234" y2="451.3985">
		<stop  offset="0" style="stop-color:#00B6BE"/>
		<stop  offset="1" style="stop-color:#00EA6C"/>
	</linearGradient>
	<path class="st7" d="M522.5,291.1c6.5-12.7,14.2-24.4,22.7-35.1c1.3-1.6,1.7-3.8,1.1-5.8l-7.9-24.6c-0.8-2.4-3.9-3.1-5.6-1.2
		c-14.3,15.6-26.7,33.3-36.9,53c-11.5,22.3-19.2,45.5-23.4,68.9c-0.4,2.5,1.9,4.5,4.3,3.7l24.1-8c2.1-0.7,3.6-2.4,4.1-4.5
		C508.9,321.8,514.7,306.2,522.5,291.1z"/>
</g>
</svg>
